<?xml version="1.0" encoding="UTF-8" standalone="no"?>
<svg
   xmlns:dc="http://purl.org/dc/elements/1.1/"
   xmlns:cc="http://creativecommons.org/ns#"
   xmlns:rdf="http://www.w3.org/1999/02/22-rdf-syntax-ns#"
   xmlns:svg="http://www.w3.org/2000/svg"
   xmlns="http://www.w3.org/2000/svg"
   xmlns:sodipodi="http://sodipodi.sourceforge.net/DTD/sodipodi-0.dtd"
   xmlns:inkscape="http://www.inkscape.org/namespaces/inkscape"
   width="1200"
   height="900"
   viewBox="0 0 317.49999 238.12501"
   version="1.1"
   id="svg8"
   inkscape:version="1.0.2-2 (e86c870879, 2021-01-15)"
   sodipodi:docname="screenshot-dark.svg">
  <defs
     id="defs2">
    <rect
       x="-58.492401"
       y="288.20801"
       width="244.95909"
       height="73.026878"
       id="rect870" />
    <rect
       x="-58.492401"
       y="288.20801"
       width="244.95909"
       height="73.026878"
       id="rect878" />
    <rect
       x="-58.492401"
       y="288.20801"
       width="273.99835"
       height="63.347126"
       id="rect884" />
  </defs>
  <sodipodi:namedview
     id="base"
     pagecolor="#ffffff"
     bordercolor="#666666"
     borderopacity="1.0"
     inkscape:pageopacity="0.0"
     inkscape:pageshadow="2"
     inkscape:zoom="0.59997041"
     inkscape:cx="705.4835"
     inkscape:cy="525.55856"
     inkscape:document-units="px"
     inkscape:current-layer="layer1"
     inkscape:document-rotation="0"
     showgrid="false"
     units="px"
     showborder="true"
     inkscape:window-width="1920"
     inkscape:window-height="1017"
     inkscape:window-x="-8"
     inkscape:window-y="-8"
     inkscape:window-maximized="1"
     fit-margin-top="0"
     fit-margin-left="0"
     fit-margin-right="0"
     fit-margin-bottom="0" />
  <metadata
     id="metadata5">
    <rdf:RDF>
      <cc:Work
         rdf:about="">
        <dc:format>image/svg+xml</dc:format>
        <dc:type
           rdf:resource="http://purl.org/dc/dcmitype/StillImage" />
        <dc:title />
      </cc:Work>
    </rdf:RDF>
  </metadata>
  <g
     inkscape:label="Layer 1"
     inkscape:groupmode="layer"
     id="layer1"
     transform="translate(80.825844,-5.6719923)">
    <g
       id="g967"
       inkscape:export-filename="C:\xampp\htdocs\realty\wp-content\themes\spr-two\screenshot-dark.png"
       inkscape:export-xdpi="96"
       inkscape:export-ydpi="96">
      <rect
         style="color:#000000;overflow:visible;fill:#32475c;stroke-width:1.66608;fill-opacity:1"
         id="rect833"
         width="317.5"
         height="238.125"
         x="-80.825844"
         y="5.6719923" />
      <g
         id="g947">
        <path
           id="path2537"
           style="color:#000000;overflow:visible;fill:#5aab21;fill-opacity:1;stroke-width:2.25212"
           d="m -27.256677,80.918346 v 3.56e-4 c -0.923133,0.01952 -1.875847,0.168077 -2.679458,0.648817 -0.622821,0.364207 -1.128906,0.966184 -1.284068,1.680663 -0.207294,0.763555 -0.18247,1.587995 0.07897,2.335394 0.135127,0.407359 0.344915,0.784472 0.428601,1.205094 0.03447,0.228891 -0.05847,0.457801 -0.212212,0.625161 -0.254098,0.309206 -0.643998,0.457559 -1.025236,0.536796 -0.584421,0.130739 -1.182927,0.188562 -1.767288,0.331888 -0.724079,0.168706 -1.443218,0.466365 -1.976717,0.999145 -0.686615,0.669641 -1.071849,1.634809 -1.030454,2.593528 0.02302,0.843063 0.369312,1.687604 1.001579,2.255728 0.604906,0.566574 1.441884,0.856514 2.266162,0.838068 1.042831,0 2.047511,-0.352224 2.987691,-0.776145 1.409528,-0.640155 2.683147,-1.530349 3.950304,-2.409494 -0.778776,0.03366 -1.573057,0.07488 -2.317999,0.315886 -1.13545,0.32112 -2.23723,0.790592 -3.416291,0.935132 -0.271971,0.02962 -0.567071,0.0331 -0.82833,-0.02749 -0.345983,-0.07392 -0.687142,-0.308242 -0.7918,-0.659253 -0.10702,-0.518237 0.0053,-1.112817 0.406686,-1.481669 0.469475,-0.458321 1.108136,-0.671783 1.716146,-0.877381 0.776441,-0.252926 1.589268,-0.431867 2.30652,-0.838418 0.436253,-0.258244 0.781803,-0.686834 0.882947,-1.189788 0.146087,-0.641974 -0.01064,-1.298854 -0.152027,-1.926622 -0.116083,-0.495887 -0.250863,-0.982936 -0.240394,-1.499759 0.0071,-0.324891 0.178461,-0.653065 0.476263,-0.800498 0.401381,-0.227478 0.847423,-0.279555 1.297981,-0.322843 0.641706,-0.0552 1.319738,0.07379 1.847998,0.456781 0.352796,0.258917 0.643168,0.621003 0.854423,1.00958 0.270792,0.510497 0.480298,1.062771 0.553147,1.638568 0.07169,0.649783 -0.04631,1.29507 -0.242134,1.917925 -0.140746,0.437249 -0.31253,0.882695 -0.472088,1.321291 0.664015,-0.32819 1.35528,-0.667882 1.83965,-1.246842 0.636493,-0.742148 0.934524,-1.719832 0.999839,-2.68259 0.07611,-1.14062 -0.32132,-2.305704 -1.08542,-3.157113 -0.762197,-0.887089 -1.847935,-1.48858 -3.005433,-1.659441 -0.451564,-0.07493 -0.910195,-0.0988 -1.36756,-0.09045 z m 4.427959,9.770525 c -0.09414,-0.0024 -0.188097,-0.002 -0.281445,7.4e-4 -0.85752,0.02424 -1.713998,0.310546 -2.384098,0.852682 -0.718921,0.560852 -1.210302,1.362704 -1.532461,2.20563 -0.231457,0.564556 -0.413389,1.161873 -0.771275,1.663617 -0.18872,0.25932 -0.475426,0.479831 -0.80989,0.476263 -0.629264,0.0377 -1.253704,-0.06748 -1.880005,-0.14194 -1.360921,-0.175506 -2.73404,-0.399603 -4.109638,-0.273443 -0.704488,0.06961 -1.430593,0.258616 -1.982632,0.723266 -0.321021,0.279921 -0.575246,0.626572 -0.821372,0.971659 -0.410013,0.602793 -0.653001,1.319252 -0.677345,2.04908 -0.02915,0.543012 -0.0087,1.096155 0.131503,1.623955 0.252778,0.89409 0.867487,1.64462 1.590212,2.20911 1.01061,0.7888 2.23151,1.28398 3.486913,1.51785 0.674531,0.12077 1.368828,0.15897 2.04908,0.0692 0.222798,-0.064 0.222675,-0.41953 0.01218,-0.49957 -0.881435,-0.45779 -1.814529,-0.84336 -2.59492,-1.47019 -0.458491,-0.37101 -0.795606,-0.8637 -1.09725,-1.36443 -0.194739,-0.34031 -0.352239,-0.70322 -0.401815,-1.0889 -0.04699,-0.402848 0.02154,-0.812275 0.141941,-1.196746 0.140262,-0.433547 0.424099,-0.83094 0.830416,-1.049935 0.437325,-0.248683 0.940093,-0.330626 1.432963,-0.361458 1.151931,-0.05857 2.294255,0.126818 3.440644,0.219518 0.679937,0.05655 1.367837,0.09954 2.046993,0.01357 0.528308,-0.0929 0.994513,-0.432154 1.28163,-0.880513 0.427671,-0.631874 0.604842,-1.385122 0.827635,-2.104044 0.16089,-0.531164 0.321329,-1.077517 0.639772,-1.539072 0.196543,-0.271236 0.51452,-0.480573 0.848507,-0.488787 0.417747,-0.02895 0.82577,0.103958 1.208922,0.255701 0.147291,0.05992 0.256231,0.188508 0.294315,0.342673 0.101318,0.412543 -0.03546,0.857065 -0.284923,1.19118 -0.275734,0.382921 -0.733517,0.610598 -1.200921,0.636988 -0.273901,0.02289 -0.539293,-0.0296 -0.808846,-0.05114 -0.14872,-0.0074 -0.320203,0.09153 -0.315539,0.256396 -0.0076,0.162918 0.138942,0.266106 0.261963,0.341978 0.715677,0.489626 1.691041,0.518072 2.461679,0.1402 0.811434,-0.375584 1.47343,-1.070877 1.801727,-1.902966 0.352413,-1.009278 -0.0838,-2.207741 -0.961222,-2.801916 -0.545351,-0.38112 -1.214408,-0.529559 -1.873395,-0.546188 z m -0.419557,6.863197 c -1.146397,0.02289 -2.277911,0.250032 -3.384286,0.535406 -0.122773,0.0478 -0.086,0.237512 0.03444,0.261614 0.423531,0.177324 0.859639,0.324936 1.309115,0.4206 0.637443,0.150058 1.29424,0.264637 1.875135,0.589328 0.322992,0.169177 0.608277,0.455503 0.679778,0.824154 0.05096,0.22485 -0.0075,0.46895 -0.162813,0.64082 -0.305423,0.36427 -0.706945,0.62943 -1.08716,0.90834 -0.450627,0.32644 -0.916495,0.66411 -1.224578,1.13691 -0.216093,0.35148 -0.279948,0.81337 -0.08697,1.18909 0.229524,0.48121 0.678991,0.79914 1.101424,1.09899 0.594513,0.40924 1.248416,0.73983 1.759982,1.25867 0.140195,0.1477 0.252844,0.37831 0.138808,0.57367 -0.127183,0.24976 -0.329256,0.45505 -0.541666,0.63386 -0.258305,0.19429 -0.561242,0.31672 -0.858944,0.39973 -1.021705,0.26376 -2.071033,0.42483 -3.074663,0.75457 -0.130933,0.0559 -0.180393,0.2661 -0.04314,0.34372 0.137551,0.0809 0.303249,0.0862 0.453651,0.1315 1.249289,0.27817 2.554048,0.29327 3.813235,0.071 0.79146,-0.15255 1.58588,-0.42081 2.218502,-0.93548 0.447449,-0.36898 0.777709,-0.8907 0.866249,-1.46844 0.102699,-0.57136 -0.02073,-1.20513 -0.422686,-1.63962 -0.415817,-0.48134 -1.01866,-0.72455 -1.552988,-1.04298 -0.136325,-0.0872 -0.296216,-0.18094 -0.351022,-0.34197 -0.0274,-0.18325 0.104476,-0.33885 0.195515,-0.48427 0.391425,-0.53971 0.887029,-0.98899 1.364429,-1.45001 0.291857,-0.29608 0.590664,-0.60208 0.77371,-0.98035 0.181747,-0.38084 0.226009,-0.82169 0.125938,-1.231539 -0.160084,-0.775676 -0.725037,-1.442821 -1.44688,-1.759635 -0.767542,-0.364342 -1.632831,-0.446534 -2.472116,-0.437648 z m -10.989188,7.809462 c -0.05952,-0.001 -0.118867,-1.8e-4 -0.178468,0.002 -1.295097,0.0458 -2.520169,0.71899 -3.350541,1.6977 -0.537868,0.63794 -0.935894,1.43563 -0.951134,2.28287 0.0081,0.69973 0.182899,1.39781 0.498527,2.02194 0.420588,0.8164 1.122913,1.46853 1.935668,1.88592 0.953248,0.50207 2.013842,0.74739 3.077793,0.88225 -0.979007,0.0744 -1.952797,0.20222 -2.897933,0.47696 -0.891534,0.25798 -1.773505,0.66369 -2.417148,1.35017 -0.619705,0.65981 -0.934154,1.59491 -0.841898,2.49473 0.09078,0.5457 0.478899,0.98452 0.903474,1.31224 0.711886,0.58165 1.577699,0.97129 2.198325,1.66362 0.250925,0.29109 0.40754,0.674 0.374331,1.06211 -0.0091,0.53803 -0.210314,1.06425 -0.545842,1.48306 -0.514131,0.67503 -1.216131,1.19696 -1.645526,1.9381 -0.294435,0.49238 -0.444079,1.06574 -0.438341,1.63892 -2.2e-5,0.51918 0.08845,1.04143 0.274832,1.52654 0.269608,0.61559 0.834879,1.04736 1.434009,1.31712 0.771289,0.34859 1.615003,0.49813 2.451589,0.58585 1.190984,0.11404 2.392302,0.069 3.581193,-0.0477 1.275767,-0.13275 2.543211,-0.36878 3.770096,-0.74518 0.547455,-0.17726 1.082506,-0.39937 1.586384,-0.67734 0.128072,-0.0906 0.09294,-0.33005 -0.07375,-0.34998 -0.212748,-0.0498 -0.433081,-0.0522 -0.649512,-0.0776 -1.768977,-0.13747 -3.539319,0.18211 -5.304646,0.0936 -0.932336,-0.0491 -1.887089,-0.2331 -2.687111,-0.73788 -0.28052,-0.17853 -0.562878,-0.37629 -0.757011,-0.65089 -0.128765,-0.19147 -0.154582,-0.4328 -0.102281,-0.64918 0.07904,-0.3619 0.284011,-0.66582 0.49505,-0.96365 0.72251,-0.9878 1.685478,-1.78154 2.338176,-2.82279 0.238835,-0.38534 0.397825,-0.85118 0.300231,-1.30668 -0.113162,-0.58097 -0.506017,-1.05677 -0.932697,-1.44548 -0.836243,-0.76342 -1.867276,-1.28654 -2.660324,-2.10092 -0.291938,-0.2917 -0.512103,-0.69134 -0.480786,-1.11499 -0.0087,-0.48236 0.194001,-0.97204 0.57263,-1.27815 0.543218,-0.45442 1.241466,-0.64767 1.899833,-0.8666 0.485775,-0.16379 0.988925,-0.32123 1.397827,-0.64256 0.150211,-0.11195 0.297948,-0.22719 0.445996,-0.34197 1.377016,0.0478 2.757925,-0.0446 4.127729,-0.1823 1.638953,-0.17658 3.286436,-0.48261 4.801248,-1.1536 1.010515,-0.45106 1.965342,-1.09734 2.61301,-2.00907 0.486139,-0.67867 0.764486,-1.49531 0.831113,-2.32531 0.01172,-0.15646 0.03365,-0.31882 0.0018,-0.47279 -0.08016,-0.206 -0.39721,-0.20082 -0.503745,-0.0209 -1.178893,1.20108 -2.580987,2.19684 -4.15904,2.80017 -1.3416,0.51562 -2.775937,0.75733 -4.206005,0.78102 -1.044366,0.0162 -2.084934,-0.0566 -3.124412,-0.15029 -0.967873,-0.0968 -1.950741,-0.25091 -2.862101,-0.61646 -0.514198,-0.21388 -1.024427,-0.52976 -1.293111,-1.03567 -0.28701,-0.54322 -0.200984,-1.23007 0.133938,-1.73216 0.408146,-0.65173 1.025643,-1.12291 1.592297,-1.625 0.283584,-0.25541 0.566421,-0.51633 0.813718,-0.80676 0.03083,-0.0963 -0.08735,-0.12706 -0.159334,-0.13359 -0.397826,-0.11916 -0.811436,-0.20619 -1.228056,-0.2136 z m 11.39483,9.23617 -3.56e-4,0.005 c -1.88874,0.0532 -3.779072,0.32136 -5.584697,0.88712 -0.515343,0.16851 -1.014401,0.38596 -1.489323,0.64743 0.0451,0.18372 0.174697,0.38748 0.384072,0.39381 0.560669,0.0552 1.125339,0.0778 1.689012,0.0613 1.318181,-0.0269 2.630671,-0.1913 3.950306,-0.12385 0.93385,0.0451 1.884719,0.2356 2.693373,0.73405 0.289258,0.1891 0.584209,0.39493 0.779973,0.68535 0.155792,0.26881 0.123726,0.60441 -0.0018,0.87807 -0.202947,0.48956 -0.553757,0.89748 -0.890255,1.29972 -0.657214,0.76221 -1.405401,1.459 -1.922447,2.33087 -0.227814,0.40184 -0.34911,0.89267 -0.204558,1.34426 0.17358,0.60966 0.628102,1.08575 1.10351,1.48167 0.821546,0.69872 1.798132,1.20985 2.53543,2.00768 0.249951,0.28356 0.43284,0.65224 0.401468,1.0388 5.34e-4,0.42156 -0.142707,0.85166 -0.447389,1.15117 -0.362126,0.37135 -0.852639,0.57623 -1.330336,0.75423 -0.575015,0.20883 -1.17782,0.35164 -1.7238,0.63351 -0.343163,0.19166 -0.642058,0.45096 -0.960875,0.67804 -0.04975,0.0458 -0.01247,0.11941 0.05149,0.11967 1.530557,-0.0653 3.081821,-0.13722 4.563288,-0.56323 0.891607,-0.25656 1.774114,-0.6599 2.42202,-1.34112 0.622598,-0.65423 0.940377,-1.58512 0.859639,-2.48325 -0.07725,-0.53459 -0.448527,-0.97026 -0.856857,-1.29798 -0.62068,-0.51178 -1.343152,-0.87471 -1.949929,-1.40305 -0.323324,-0.28645 -0.633328,-0.66471 -0.667951,-1.11812 -0.03373,-0.3871 0.03448,-0.78331 0.187512,-1.14004 0.136332,-0.3119 0.345823,-0.61011 0.579239,-0.86694 0.53811,-0.6032 1.178212,-1.14074 1.538722,-1.87932 0.361016,-0.7212 0.387798,-1.56844 0.222303,-2.34513 -0.09075,-0.50995 -0.326047,-1.00651 -0.725005,-1.34669 -0.588864,-0.53453 -1.363833,-0.79771 -2.126311,-0.96992 -1.009561,-0.22397 -2.048827,-0.25972 -3.079533,-0.25326 z m -12.056171,17.1726 c -0.196558,0.0323 -0.347725,0.1762 -0.507921,0.28284 -0.623232,0.49629 -0.977277,1.2577 -1.129604,2.02577 -0.136021,0.65012 -0.117449,1.35558 0.18299,1.95932 0.427046,0.9122 1.210334,1.61434 2.080391,2.09744 0.900284,0.5037 1.882502,0.83824 2.869059,1.12751 1.944616,0.5517 3.965321,0.82042 5.985122,0.84781 1.312638,0.0141 2.630471,-0.10687 3.906817,-0.42025 0.855685,-0.2019 1.710757,-0.42791 2.523254,-0.76849 0.739611,-0.31547 1.45967,-0.75538 1.933233,-1.42079 0.373247,-0.5214 0.578242,-1.15468 0.613679,-1.79268 0.02424,-0.57425 -0.156952,-1.14264 -0.439734,-1.63718 -0.366427,-0.63733 -0.943149,-1.14229 -1.6083,-1.45036 -1.046635,-0.49797 -2.260731,-0.56073 -3.383242,-0.31797 -0.482963,0.10145 -0.954718,0.24819 -1.428443,0.38512 0.918059,0.35579 1.876904,0.62548 2.737558,1.11429 0.304486,0.17686 0.632184,0.39476 0.746226,0.74658 0.09813,0.32812 0.02621,0.67691 -0.05532,1.00018 -0.159922,0.44776 -0.568179,0.74084 -0.967138,0.96402 -0.790523,0.45084 -1.692774,0.64185 -2.576135,0.81823 -1.182865,0.22633 -2.399017,0.31569 -3.599977,0.21013 -1.261511,-0.10354 -2.493048,-0.39109 -3.704,-0.74554 -0.819289,-0.23878 -1.66012,-0.49565 -2.34548,-1.02418 -0.342308,-0.25832 -0.640493,-0.59411 -0.847465,-0.96088 -0.285461,-0.49764 -0.453872,-1.05415 -0.561148,-1.60725 -0.07021,-0.36987 -0.128379,-0.73867 -0.153072,-1.11257 -0.0014,-0.1139 -0.0377,-0.23786 -0.148201,-0.29118 -0.03757,-0.0195 -0.08064,-0.0329 -0.123154,-0.0296 z m 17.164604,7.97819 c -0.214775,-0.004 -0.429296,-0.003 -0.642902,0.001 -1.858384,0.0613 -3.726781,0.46736 -5.376659,1.34321 -0.578813,0.31277 -1.117292,0.69238 -1.664659,1.05585 1.087383,0.007 2.180877,-0.0413 3.248608,-0.26022 1.054274,-0.19106 2.103884,-0.44861 3.179378,-0.35624 0.420521,0.0303 0.856372,0.0462 1.249277,0.21361 0.207989,0.10239 0.352794,0.31524 0.36807,0.54723 0.06106,0.3642 -0.006,0.78144 -0.291881,1.03915 -0.282324,0.27574 -0.69479,0.36407 -1.078116,0.33432 -0.829502,-0.0633 -1.644271,-0.25256 -2.440456,-0.48044 -0.911602,-0.26444 -1.819099,-0.5447 -2.74347,-0.76188 -0.226636,-0.0552 -0.453164,-0.11103 -0.67978,-0.16664 0.533608,0.63437 1.089487,1.2781 1.816341,1.69771 1.164923,0.71657 2.504021,1.12955 3.860896,1.26911 0.854014,0.0696 1.715508,-0.0269 2.548304,-0.21778 0.649182,-0.16386 1.301626,-0.43564 1.766242,-0.93374 0.379443,-0.40817 0.597827,-0.95312 0.625509,-1.50811 0.04941,-0.60003 -0.06913,-1.24623 -0.471044,-1.71371 -0.347741,-0.42237 -0.850055,-0.68294 -1.366865,-0.83738 -0.617326,-0.18949 -1.262464,-0.25223 -1.906793,-0.26509 z" />
        <path
           id="path2560"
           style="fill:#5f8dd3;stroke-width:0.59897"
           d="m 0.3874561,134.07056 c -0.13563309,0 -0.2711201,-1.3e-4 -0.40668587,0.007 v -0.003 c -1.27912643,0.0471 -2.55420083,0.26298 -3.77079273,0.66273 -0.1868234,0.0872 -0.379163,0.26911 -0.338151,0.49471 0.034334,0.23858 0.2917331,0.36593 0.5134873,0.35833 0.3696263,0.0141 0.7390493,-0.0269 1.1087295,0 1.93534655,0.0633 3.8594768,0.60032 5.5575638,1.54463 0.9220966,0.51292 1.7888196,1.15932 2.5409965,1.89392 1.2300635,1.20148 2.200846,2.65811 2.8280077,4.25436 0.6219658,1.56684 0.9191008,3.25797 0.8474638,4.94423 -0.079116,2.10621 -0.7272136,4.17686 -1.8466067,5.9639 -1.0379965,1.6627 -2.4737582,3.0745 -4.1698249,4.05537 -1.5118762,0.88237 -3.20899108,1.42946 -4.9494486,1.60308 -0.6181009,0.0646 -1.2464064,0.0703 -1.8723509,0.0491 -0.2138049,0 -0.4716965,0.0801 -0.5420133,0.30475 -0.075346,0.227 0.091162,0.47382 0.3124054,0.53575 0.3698148,0.16305 0.7702351,0.23552 1.1598692,0.33502 3.14884176,0.71771 6.5527543,0.28475 9.4069795,-1.23328 2.9819602,-1.57316 5.3537782,-4.27999 6.4881712,-7.45809 1.069443,-2.97215 1.07927,-6.31834 -0.0032,-9.28834 -0.986778,-2.7321 -2.866326,-5.13427 -5.2889906,-6.739 -2.2253375,-1.48787 -4.8976336,-2.30032 -7.57567762,-2.28531 z m -5.0545125,2.50064 c -1.3097919,-0.001 -2.615389,0.28689 -3.7927105,0.84433 -0.086312,0.0883 -0.2078343,0.14358 -0.2643968,0.25918 h -3.561e-4 c -0.1810257,0.27688 0.093645,0.68569 0.4150344,0.6596 0.3852723,0.004 0.7587817,-0.10971 1.144215,-0.10889 0.7667526,-0.0434 1.5372617,0.0293 2.280775,0.21222 1.2512367,0.30477 2.4317896,0.92428 3.3839383,1.79442 1.48441602,1.33949 2.41002341,3.26888 2.5538697,5.24933 0.062878,0.82459 -0.016245,1.66531 -0.22369378,2.44915 -0.2804205,1.07522 -0.80554768,2.087 -1.50463047,2.93029 -0.81279345,0.98141 -1.86728165,1.75813 -3.06457465,2.20389 -0.2980626,0.12024 -0.6154983,0.18938 -0.9069507,0.32459 -0.2027118,0.11043 -0.345112,0.37581 -0.2254347,0.59976 0.1179943,0.23642 0.4092939,0.29741 0.6481208,0.28388 0.9674717,-0.005 1.9256537,-0.20475 2.829748,-0.53018 1.65436191,-0.60558 3.1137546,-1.72297 4.1092904,-3.1766 1.2858741,-1.84224 1.8306833,-4.20456 1.4416611,-6.44677 -0.2983387,-1.8769 -1.2273646,-3.65437 -2.5983992,-4.9818 -1.43152783,-1.40403 -3.3357532,-2.32466 -5.319604,-2.51908 -0.3011944,-0.0313 -0.6036498,-0.0471 -0.9059092,-0.0473 z m 8.7098052,2.92298 c -0.089495,-6.7e-4 -0.1710938,0.0203 -0.2421337,0.0665 -0.8804908,0.53172 2.0953452,3.58178 1.5199387,7.50332 -0.2322321,1.5827 -0.8773638,3.28302 -2.0588216,4.69758 -0.9583819,1.14748 -1.8866398,1.90467 -3.261828650261,2.70659 C -5.5684895,157.71522 -12.18075,156.27654 -15.596756,155.84959 c -0.796764,0.64029 1.40364,1.67191 2.731643,2.17815 4.6932332,1.78906 9.2357212,1.2473 13.00661025,0.31067 4.23383375,-1.05163 6.83390445,-5.0148 7.68178565,-8.48507 0.6703892,-2.74381 -0.1588178,-5.81177 -1.5362882,-8.23076 -0.5974704,-1.04922 -1.617779,-2.12354 -2.2442459,-2.1284 z m -36.5598898,14.70537 v 0.003 c -1.860277,0.071 -3.731558,0.33762 -5.480329,0.99636 -1.956063,0.70882 -3.800612,1.72502 -5.449022,2.99395 -1.004182,0.77979 -1.9106,1.68801 -2.668325,2.71008 -0.159719,0.20553 -0.319436,0.41121 -0.479046,0.61681 2.35083,-1.01541 4.717664,-2.002 7.168299,-2.75182 1.944965,-0.59438 3.943668,-1.04549 5.970161,-1.25519 0.270663,-0.0384 0.54922,-0.0307 0.815804,-0.0891 0.145925,-0.064 0.150353,-0.24496 0.138113,-0.38095 0.01797,-0.94788 0.03622,-1.89578 0.05392,-2.84366 z m 9.126578,1.30458 c 3.56e-4,0.029 7.4e-4,0.0586 7.4e-4,0.0877 l 3.56e-4,3.5e-4 c 0.01064,0.99609 0.02109,1.9923 0.03166,2.98839 1.465141,0.45589 2.886654,1.0325 4.285673,1.66222 3.221817,1.37719 6.42004,2.83822 9.7774812,3.86055 2.6961022,0.82125 5.5024858,1.32596 8.32642999,1.33034 0.55092125,0 1.1039759,-4e-5 1.65178624,-0.0634 2.08558767,-0.30059 4.13162697,-0.89433 6.04287257,-1.78398 1.203949,-0.57122 2.3579384,-1.28763 3.294529,-2.2446 0.413189,-0.43146 0.787769,-0.90927 1.057242,-1.44339 0.05507,-0.21126 -0.207184,-0.39212 -0.393117,-0.2978 -1.4957203,0.47381 -2.9134635,1.15433 -4.3573394,1.7572 -1.1402835,0.47542 -2.3102199,0.89302 -3.5150919,1.15186 -1.1825207,0.25906 -2.39294469,0.36789 -3.60345752,0.31868 -2.48702118,-0.092 -4.92044868,-0.72288 -7.26918768,-1.5349 -2.4966215,-0.86737 -4.9107375,-1.94135 -7.3492015,-2.95951 -2.06873,-0.86892 -4.159608,-1.6941 -6.311095,-2.33748 -0.554543,-0.17107 -1.112423,-0.33198 -1.670227,-0.49227 z m -9.137014,3.23644 c -0.0237,0 -0.04733,-1.2e-4 -0.07097,0.007 v -0.002 c -2.775015,0.14865 -5.507923,0.70324 -8.206058,1.34286 -0.435231,0.0971 -0.870801,0.20192 -1.28198,0.37816 -0.115543,0.0444 -0.231036,0.0897 -0.346499,0.13464 0.612305,0.21105 1.246444,0.37768 1.896704,0.40077 1.588345,0.10892 3.180577,0.0204 4.770631,0.017 1.06459,-0.0121 2.129452,-0.007 3.193642,0.0268 0.01475,-0.7684 0.02952,-1.53672 0.04453,-2.30512 z m 9.175978,1.25763 c 1.78e-4,0.0303 5.34e-4,0.0597 7.4e-4,0.0901 0.0067,0.90446 0.01288,1.80909 0.01913,2.71355 1.099973,0.43119 2.159121,0.9683 3.236432,1.45732 2.698868,1.25856 5.422065,2.50533 8.298249,3.30531 2.4045885,0.67469 4.9050005,1.02533 7.4045185,0.98454 1.6483623,-0.0189 3.3066255,-0.16627 4.90213397,-0.59699 0.92758323,-0.25837 1.84322313,-0.63315 2.59770503,-1.24301 0.2512281,-0.20728 0.4885537,-0.43658 0.6787344,-0.70135 0.1012192,-0.21045 -0.1606537,-0.4417 -0.3635452,-0.35311 -2.66672803,0.51602 -5.3759774,0.93285 -8.1002985,0.80467 -2.1727544,-0.0908 -4.3202761,-0.5565 -6.3747602,-1.27085 -1.804461,-0.62649 -3.537224,-1.43455 -5.234023,-2.30373 -2.27344,-1.14762 -4.635877,-2.12027 -7.064976,-2.88645 z" />
        <path
           id="path2568"
           style="color:#000000;overflow:visible;fill:#dc6311;fill-opacity:1;stroke-width:0.961325"
           d="m -30.986817,139.2516 c -0.192229,0.0168 -0.285165,0.22714 -0.283058,0.39908 -0.0309,0.45186 -0.01932,0.90547 -0.03555,1.358 -0.176549,9.02876 -0.353362,18.05753 -0.529756,27.08636 2.559257,0 5.118515,0 7.677773,0 -0.06355,-6.62379 -0.126983,-13.24758 -0.190236,-19.87136 -0.615201,-1.88089 -1.221387,-3.76446 -1.851903,-5.64009 -0.05386,-0.19012 -0.301531,-0.35304 -0.470648,-0.19483 -0.141805,0.15033 -0.111079,0.37619 -0.129956,0.5657 -0.07564,3.77193 -0.148645,7.54406 -0.22319,11.31606 -0.07147,3.6348 -0.142949,7.26967 -0.214425,10.90453 -0.473575,0 -0.94716,0 -1.420743,0 -0.06045,-6.49601 -0.121205,-12.99202 -0.181565,-19.48796 -0.605464,-2.04448 -1.205915,-4.09077 -1.816376,-6.13356 -0.06571,-0.13471 -0.151399,-0.31499 -0.330385,-0.30193 z" />
        <path
           id="path2570"
           style="color:#000000;font-style:normal;font-variant:normal;font-weight:normal;font-stretch:normal;font-size:medium;line-height:normal;font-family:sans-serif;font-variant-ligatures:normal;font-variant-position:normal;font-variant-caps:normal;font-variant-numeric:normal;font-variant-alternates:normal;font-variant-east-asian:normal;font-feature-settings:normal;font-variation-settings:normal;text-indent:0;text-align:start;text-decoration:none;text-decoration-line:none;text-decoration-style:solid;text-decoration-color:#000000;letter-spacing:normal;word-spacing:normal;text-transform:none;writing-mode:lr-tb;direction:ltr;text-orientation:mixed;dominant-baseline:auto;baseline-shift:baseline;text-anchor:start;white-space:normal;shape-padding:0;shape-margin:0;inline-size:0;clip-rule:nonzero;display:inline;overflow:visible;visibility:visible;isolation:auto;mix-blend-mode:normal;color-interpolation:sRGB;color-interpolation-filters:linearRGB;solid-color:#000000;solid-opacity:1;vector-effect:none;fill:#ffd738;fill-opacity:1;fill-rule:nonzero;stroke:none;stroke-width:2.9024;stroke-linecap:butt;stroke-linejoin:miter;stroke-miterlimit:4;stroke-dasharray:none;stroke-dashoffset:0;stroke-opacity:1;color-rendering:auto;image-rendering:auto;shape-rendering:auto;text-rendering:auto;enable-background:accumulate;stop-color:#000000"
           d="m -39.765539,121.09767 c -2.093665,2.38464 -3.823931,5.10327 -4.987292,8.06021 -1.625434,4.06498 -2.326973,8.50023 -2.0039,12.86829 0.269999,3.75887 1.290916,7.45877 2.965924,10.83297 0.08113,0.16365 0.164965,0.32583 0.229754,0.49629 0.314821,0.59673 0.637631,1.18997 0.988555,1.76664 0.12917,0.2163 0.263233,0.42971 0.397,0.64332 0.893202,-0.48471 1.786579,-0.96916 2.679896,-1.45373 -0.860821,-1.55889 -1.718787,-3.12424 -2.350393,-4.79057 -1.370098,-3.44556 -1.995263,-7.1773 -1.799931,-10.87989 0.108522,-2.08924 0.472662,-4.16071 1.076196,-6.16533 0.62317,-2.09342 1.437654,-4.14691 2.63508,-5.98148 0.436961,-0.67833 0.90009,-1.3343 1.419069,-1.9513 0.39032,-0.37888 0.688876,-0.90298 0.658715,-1.4612 -0.05231,-0.56463 -0.407924,-1.0525 -0.826434,-1.41294 -0.311272,-0.26262 -0.676662,-0.45192 -1.050935,-0.60784 -0.01043,0.0121 -0.02087,0.0242 -0.0313,0.0363 z" />
        <path
           id="path2572"
           style="color:#000000;font-style:normal;font-variant:normal;font-weight:normal;font-stretch:normal;font-size:medium;line-height:normal;font-family:sans-serif;font-variant-ligatures:normal;font-variant-position:normal;font-variant-caps:normal;font-variant-numeric:normal;font-variant-alternates:normal;font-variant-east-asian:normal;font-feature-settings:normal;font-variation-settings:normal;text-indent:0;text-align:start;text-decoration:none;text-decoration-line:none;text-decoration-style:solid;text-decoration-color:#000000;letter-spacing:normal;word-spacing:normal;text-transform:none;writing-mode:lr-tb;direction:ltr;text-orientation:mixed;dominant-baseline:auto;baseline-shift:baseline;text-anchor:start;white-space:normal;shape-padding:0;shape-margin:0;inline-size:0;clip-rule:nonzero;display:inline;overflow:visible;visibility:visible;isolation:auto;mix-blend-mode:normal;color-interpolation:sRGB;color-interpolation-filters:linearRGB;solid-color:#000000;solid-opacity:1;vector-effect:none;fill:#ffd738;fill-opacity:1;fill-rule:nonzero;stroke:none;stroke-width:2.9024;stroke-linecap:butt;stroke-linejoin:miter;stroke-miterlimit:4;stroke-dasharray:none;stroke-dashoffset:0;stroke-opacity:1;color-rendering:auto;image-rendering:auto;shape-rendering:auto;text-rendering:auto;enable-background:accumulate;stop-color:#000000"
           d="m -16.250614,111.52145 c -1.365816,0.12878 -2.752166,0.31775 -4.01892,0.87281 -0.604636,0.25838 -1.169764,0.59862 -1.721109,0.95462 0.737616,0.42998 1.57983,0.66203 2.429079,0.71959 1.395471,0.10886 2.800838,0.0965 4.187047,0.27629 2.030625,0.2371 4.030936,0.71683 5.9738635,1.34736 1.4619846,0.46458 2.9105851,0.99622 4.2810662,1.68235 3.1531712,1.55566 5.98567057,3.76554 8.2542699,6.45273 2.2405056,2.64471 3.9392247,5.73151 4.9703013,9.0433 0.1725432,0.54719 0.3236265,1.10393 0.4639963,1.66088 0.094715,0.20735 0.2997618,0.32886 0.4400172,0.50148 1.1500326,1.17758 2.1866426,2.4622 3.1356746,3.80599 0.124645,-0.10307 0.263461,-0.25508 0.213589,-0.43058 -0.271841,-3.40584 -1.126409,-6.76732 -2.5509085,-9.87445 -1.8074507,-3.96145 -4.5052878,-7.51788 -7.8558773,-10.30127 -3.1812568,-2.64922 -6.9384326,-4.60113 -10.9330086,-5.68648 -2.3665716,-0.64641 -4.8153346,-0.99588 -7.2690806,-1.02462 z" />
      </g>
      <g
         id="g940">
        <text
           xml:space="preserve"
           id="text868"
           style="color:#000000;font-style:italic;font-variant:normal;font-weight:500;font-stretch:normal;line-height:125%;font-family:'Crimson Pro';-inkscape-font-specification:'Crimson Pro Medium Italic';text-align:center;letter-spacing:0px;word-spacing:0px;white-space:pre;shape-inside:url(#rect870);display:inline;overflow:visible;visibility:visible;fill:#ffffff;fill-opacity:1;fill-rule:nonzero;stroke:none;stroke-width:0.147792;stroke-linecap:butt;stroke-linejoin:miter;stroke-opacity:1;marker:none;marker-start:none;marker-mid:none;marker-end:none;enable-background:accumulate;"
           transform="matrix(1.8672883,0,0,1.8672883,-9.1550845,-448.40314)"><tspan
             x="14.293945"
             y="299.38717"><tspan
               style="font-style:italic;font-variant:normal;font-weight:500;font-stretch:normal;font-family:'Crimson Pro';-inkscape-font-specification:'Crimson Pro Medium Italic';fill:#ffffff;fill-opacity:1">Sequoia Pacific Realty</tspan></tspan></text>
        <text
           xml:space="preserve"
           id="text876"
           style="color:#000000;font-style:normal;font-variant:normal;font-weight:500;font-stretch:normal;line-height:125%;font-family:'Crimson Pro';-inkscape-font-specification:'Crimson Pro Medium';text-align:center;letter-spacing:0px;word-spacing:0px;white-space:pre;shape-inside:url(#rect878);display:inline;overflow:visible;visibility:visible;fill:#ffffff;fill-opacity:1;fill-rule:nonzero;stroke:none;stroke-width:0.147792;stroke-linecap:butt;stroke-linejoin:miter;stroke-opacity:1;marker:none;marker-start:none;marker-mid:none;marker-end:none;enable-background:accumulate;"
           transform="matrix(0.92922959,0,0,0.92922959,61.76472,-149.3605)"><tspan
             x="-23.616211"
             y="299.38717"><tspan
               style="font-style:normal;font-variant:normal;font-weight:500;font-stretch:normal;font-family:'Crimson Pro';-inkscape-font-specification:'Crimson Pro Medium';fill:#ffffff;fill-opacity:1">Real Estate &amp; Property Management</tspan></tspan></text>
        <text
           xml:space="preserve"
           id="text882"
           style="color:#000000;font-style:normal;font-variant:normal;font-weight:500;font-stretch:normal;line-height:125%;font-family:'Crimson Pro';-inkscape-font-specification:'Crimson Pro Medium';text-align:center;letter-spacing:0px;word-spacing:0px;white-space:pre;shape-inside:url(#rect884);display:inline;overflow:visible;visibility:visible;fill:#ffffff;fill-opacity:1;fill-rule:nonzero;stroke:none;stroke-width:0.147792;stroke-linecap:butt;stroke-linejoin:miter;stroke-opacity:1;marker:none;marker-start:none;marker-mid:none;marker-end:none;enable-background:accumulate;"
           transform="matrix(0.61263912,0,0,0.61263912,73.286358,-30.949395)"><tspan
             x="-54.430664"
             y="299.38717"><tspan
               style="font-style:normal;font-variant:normal;font-weight:500;font-stretch:normal;font-family:'Crimson Pro';-inkscape-font-specification:'Crimson Pro Medium';fill:#ffffff;fill-opacity:1">Companion theme for the Sequoia Pacific Realty plugin</tspan></tspan></text>
        <rect
           style="color:#000000;overflow:visible;fill:#cccccc;fill-opacity:1;stroke-width:0.282169"
           id="rect886"
           width="162.38287"
           height="0.29205552"
           x="40.298969"
           y="139.62196" />
      </g>
    </g>
  </g>
</svg>
