<?xml version="1.0" encoding="UTF-8" standalone="no"?>
<svg
   xmlns:dc="http://purl.org/dc/elements/1.1/"
   xmlns:cc="http://creativecommons.org/ns#"
   xmlns:rdf="http://www.w3.org/1999/02/22-rdf-syntax-ns#"
   xmlns:svg="http://www.w3.org/2000/svg"
   xmlns="http://www.w3.org/2000/svg"
   xmlns:sodipodi="http://sodipodi.sourceforge.net/DTD/sodipodi-0.dtd"
   xmlns:inkscape="http://www.inkscape.org/namespaces/inkscape"
   width="1200"
   height="900"
   viewBox="0 0 317.49999 238.12501"
   version="1.1"
   id="svg8"
   inkscape:version="1.0.2-2 (e86c870879, 2021-01-15)"
   sodipodi:docname="screenshot.svg">
  <defs
     id="defs2">
    <rect
       x="-58.492401"
       y="288.20801"
       width="244.95909"
       height="73.026878"
       id="rect870" />
    <rect
       x="-58.492401"
       y="288.20801"
       width="244.95909"
       height="73.026878"
       id="rect878" />
    <rect
       x="-58.492401"
       y="288.20801"
       width="273.99835"
       height="63.347126"
       id="rect884" />
  </defs>
  <sodipodi:namedview
     id="base"
     pagecolor="#ffffff"
     bordercolor="#666666"
     borderopacity="1.0"
     inkscape:pageopacity="0.0"
     inkscape:pageshadow="2"
     inkscape:zoom="0.37317881"
     inkscape:cx="705.4835"
     inkscape:cy="525.55856"
     inkscape:document-units="px"
     inkscape:current-layer="layer1"
     inkscape:document-rotation="0"
     showgrid="false"
     units="px"
     showborder="true"
     inkscape:window-width="1920"
     inkscape:window-height="1017"
     inkscape:window-x="-8"
     inkscape:window-y="-8"
     inkscape:window-maximized="1"
     fit-margin-top="0"
     fit-margin-left="0"
     fit-margin-right="0"
     fit-margin-bottom="0" />
  <metadata
     id="metadata5">
    <rdf:RDF>
      <cc:Work
         rdf:about="">
        <dc:format>image/svg+xml</dc:format>
        <dc:type
           rdf:resource="http://purl.org/dc/dcmitype/StillImage" />
        <dc:title></dc:title>
      </cc:Work>
    </rdf:RDF>
  </metadata>
  <g
     inkscape:label="Layer 1"
     inkscape:groupmode="layer"
     id="layer1"
     transform="translate(80.825844,-5.6719923)">
    <g
       id="g929"
       inkscape:export-filename="C:\xampp\htdocs\realty\wp-content\themes\spr-two\screenshot.png"
       inkscape:export-xdpi="96"
       inkscape:export-ydpi="96">
      <rect
         style="color:#000000;overflow:visible;fill:#ffffff;stroke-width:1.66608"
         id="rect833"
         width="317.5"
         height="238.125"
         x="-80.825844"
         y="5.6719923" />
      <g
         id="g911"
         transform="translate(-5.7514972)">
        <g
           id="g866"
           transform="matrix(0.67321063,0,0,0.67321063,-10.634973,38.819552)">
          <path
             id="path2537"
             style="color:#000000;overflow:visible;fill:#5aab21;fill-opacity:1;stroke-width:3.34534"
             d="m -16.146814,62.534357 v 5.29e-4 c -1.37124,0.029 -2.78642,0.249665 -3.980119,0.963765 -0.92515,0.541 -1.676898,1.435189 -1.907379,2.496489 -0.307919,1.1342 -0.271044,2.358838 0.117306,3.469039 0.200721,0.605099 0.512344,1.16527 0.636653,1.79007 0.0512,0.34 -0.08685,0.680027 -0.315224,0.928627 -0.377442,0.4593 -0.956607,0.679667 -1.522905,0.797366 -0.868111,0.194202 -1.757143,0.280094 -2.625164,0.492993 -1.07556,0.2506 -2.143784,0.692748 -2.936253,1.484149 -1.019911,0.994698 -1.592146,2.428377 -1.530657,3.852476 0.0342,1.252302 0.548584,2.5068 1.487765,3.350702 0.898539,0.8416 2.141802,1.272283 3.366201,1.244883 1.549041,0 3.041412,-0.5232 4.437973,-1.152901 2.093741,-0.950899 3.985599,-2.27321 5.867858,-3.579109 -1.156809,0.05 -2.336649,0.111223 -3.4432,0.469223 -1.686619,0.476999 -3.323225,1.174361 -5.074624,1.389063 -0.403992,0.044 -0.842338,0.04917 -1.230418,-0.04083 -0.51393,-0.109799 -1.020694,-0.457869 -1.176155,-0.979267 -0.15897,-0.7698 0.0079,-1.653001 0.604099,-2.2009 0.697368,-0.680799 1.646047,-0.997879 2.549197,-1.303279 1.15334,-0.375701 2.360729,-0.641504 3.426148,-1.245402 0.64802,-0.383601 1.161306,-1.020236 1.311547,-1.767334 0.217001,-0.953601 -0.0158,-1.929342 -0.225824,-2.861842 -0.172432,-0.7366 -0.372637,-1.460071 -0.357085,-2.22777 0.0105,-0.4826 0.265089,-0.970075 0.707449,-1.189075 0.59622,-0.3379 1.258779,-0.415257 1.928047,-0.479558 0.953202,-0.082 1.960364,0.109612 2.745052,0.678512 0.52405,0.3846 0.955374,0.92245 1.269175,1.49965 0.402241,0.758301 0.713444,1.57866 0.821656,2.43396 0.106489,0.9652 -0.06879,1.923722 -0.35967,2.848922 -0.209068,0.649499 -0.464238,1.311172 -0.701249,1.962671 0.98634,-0.4875 2.013159,-0.992084 2.7326512,-1.852083 0.9454595,-1.1024 1.3881603,-2.554671 1.4851803,-3.984771 0.1130486,-1.694299 -0.4772951,-3.424936 -1.6123046,-4.689636 -1.1321809,-1.317699 -2.7449569,-2.211165 -4.4643279,-2.464965 -0.670761,-0.1113 -1.352021,-0.146759 -2.031399,-0.134359 z m 6.5773746,14.513325 c -0.1398375,-0.0035 -0.2794026,-0.003 -0.4180628,0.0011 -1.2737778,0.036 -2.5460058,0.461291 -3.5413848,1.26659 -1.0679,0.833101 -1.797806,2.024187 -2.276348,3.276285 -0.34381,0.838602 -0.614055,1.725869 -1.145667,2.471169 -0.280328,0.385199 -0.706207,0.71275 -1.203026,0.70745 -0.93472,0.056 -1.862275,-0.10024 -2.792595,-0.210841 -2.021538,-0.260699 -4.061195,-0.593577 -6.104535,-0.406177 -1.046461,0.103401 -2.12503,0.384153 -2.94504,1.074353 -0.476851,0.415801 -0.854482,0.930722 -1.220081,1.443321 -0.609042,0.8954 -0.969981,1.959642 -1.006142,3.043743 -0.0433,0.806601 -0.01296,1.628256 0.195337,2.412256 0.375481,1.3281 1.288582,2.442954 2.362131,3.281453 1.50118,1.171699 3.314729,1.907243 5.179528,2.254641 1.001962,0.179401 2.033284,0.236138 3.043743,0.102838 0.330949,-0.095 0.330766,-0.623175 0.0181,-0.742074 -1.309301,-0.68 -2.695337,-1.252746 -3.854545,-2.183847 -0.681051,-0.5511 -1.181807,-1.282948 -1.629876,-2.026748 -0.289269,-0.505502 -0.523222,-1.044572 -0.596863,-1.617474 -0.0698,-0.598398 0.032,-1.206569 0.210841,-1.77767 0.208349,-0.643998 0.629965,-1.234294 1.233517,-1.559594 0.64961,-0.369398 1.396431,-0.491117 2.128551,-0.536916 1.7111,-0.087 3.407929,0.188378 5.110798,0.326077 1.009991,0.084 2.031812,0.147855 3.040642,0.02016 0.784759,-0.137999 1.477269,-0.64193 1.903759,-1.307931 0.63527,-0.938599 0.898443,-2.057487 1.229384,-3.125388 0.23899,-0.789001 0.477308,-1.600565 0.95033,-2.286167 0.291949,-0.402899 0.764278,-0.713853 1.260388,-0.726053 0.6205296,-0.043 1.226616,0.154421 1.7957559,0.379822 0.2187892,0.089 0.380611,0.280014 0.4371816,0.509014 0.1505003,0.612799 -0.052679,1.273101 -0.4232302,1.769401 -0.4095802,0.568798 -1.0895806,0.906994 -1.7838713,0.946195 -0.406857,0.034 -0.801076,-0.04397 -1.201475,-0.07596 -0.220911,-0.01101 -0.475636,0.135956 -0.468707,0.380855 -0.0113,0.242001 0.206386,0.395279 0.389125,0.507981 1.06308,0.7273 2.5119042,0.769554 3.656624,0.208256 1.2053199,-0.5579 2.1886624,-1.590701 2.6763212,-2.826702 0.5234808,-1.499201 -0.1244785,-3.279421 -1.4278186,-4.16202 -0.8100748,-0.566124 -1.8039054,-0.786617 -2.7827764,-0.811319 z m -0.6232176,10.194726 c -1.70288,0.034 -3.383653,0.371401 -5.027084,0.795301 -0.182369,0.071 -0.127741,0.352806 0.05116,0.388607 0.629121,0.2634 1.276924,0.482666 1.944584,0.624768 0.94687,0.222898 1.922489,0.393097 2.785362,0.875398 0.4797793,0.251299 0.9035465,0.676614 1.0097555,1.224214 0.0757,0.333999 -0.011112,0.696582 -0.241845,0.951881 -0.4536815,0.541099 -1.0501105,0.934971 -1.6148895,1.349271 -0.66937,0.4849 -1.361379,0.986486 -1.819011,1.688786 -0.320989,0.522099 -0.41584,1.208201 -0.12919,1.7663 0.340939,0.714801 1.008586,1.187058 1.636077,1.632458 0.8831,0.607901 1.8544198,1.098954 2.614311,1.869658 0.2082483,0.2194 0.3755787,0.56194 0.2061872,0.85214 -0.1889205,0.371 -0.4890823,0.67594 -0.8046006,0.94155 -0.3836908,0.2886 -0.8336806,0.47046 -1.2758926,0.59376 -1.51766,0.3918 -3.076352,0.63106 -4.567163,1.12086 -0.19449,0.083 -0.267959,0.39526 -0.06408,0.51056 0.204321,0.1202 0.450453,0.12804 0.673862,0.19534 1.855718,0.4132 3.793833,0.43562 5.6642524,0.10542 1.1756496,-0.2266 2.3556965,-0.62508 3.2954066,-1.38958 0.6646492,-0.5481 1.1552237,-1.32306 1.2867428,-2.18126 0.1525508,-0.8487 -0.030787,-1.790112 -0.6278669,-2.435513 -0.6176618,-0.714999 -1.5131361,-1.076259 -2.3068385,-1.549259 -0.2024989,-0.129601 -0.4400047,-0.26878 -0.5214144,-0.507979 -0.040698,-0.272201 0.1551914,-0.503336 0.2904226,-0.719336 0.5814298,-0.801701 1.3176091,-1.469075 2.026748,-2.153875 0.4335303,-0.439799 0.8773847,-0.894342 1.1492838,-1.45624 0.2699702,-0.565701 0.3357192,-1.220547 0.187071,-1.829345 -0.2377916,-1.152203 -1.0769838,-2.143194 -2.1492236,-2.613795 -1.1401213,-0.5412 -2.4254381,-0.66329 -3.6721278,-0.65009 z m -16.323551,11.600326 c -0.08841,-0.0016 -0.176567,-2.65e-4 -0.265099,0.0031 -1.923762,0.068 -3.743508,1.06801 -4.976958,2.521806 -0.79896,0.9476 -1.390195,2.13251 -1.412833,3.39101 0.01209,1.03939 0.271682,2.07633 0.740521,3.00343 0.62475,1.2127 1.667997,2.18138 2.875278,2.80138 1.415973,0.74578 2.9914,1.11019 4.571814,1.31051 -1.454237,0.1105 -2.900722,0.30038 -4.304646,0.70849 -1.324301,0.3832 -2.634398,0.98586 -3.590478,2.00556 -0.920522,0.9801 -1.38761,2.36912 -1.250572,3.70572 0.13484,0.8106 0.711367,1.46243 1.342039,1.94923 1.057449,0.864 2.343544,1.44277 3.265434,2.47117 0.372729,0.4324 0.605367,1.00118 0.556038,1.57768 -0.01349,0.7992 -0.312404,1.58087 -0.810805,2.20297 -0.763699,1.0027 -1.806464,1.77799 -2.444295,2.87889 -0.437359,0.7314 -0.659643,1.58308 -0.651121,2.43448 -3.2e-5,0.7712 0.131381,1.54696 0.408241,2.26756 0.400482,0.9144 1.240145,1.55577 2.130105,1.95647 1.145688,0.5178 2.398956,0.73993 3.641638,0.87023 1.76911,0.1694 3.553571,0.1025 5.319572,-0.0708 1.895049,-0.1972 3.777734,-0.5478 5.600173,-1.10691 0.8132,-0.2633 1.607976,-0.59323 2.356446,-1.00614 0.19024,-0.1345 0.138057,-0.49026 -0.109554,-0.51986 -0.316021,-0.074 -0.643308,-0.0776 -0.964798,-0.11524 -2.627672,-0.2042 -5.257373,0.27051 -7.879624,0.13901 -1.384909,-0.073 -2.803118,-0.34626 -3.991486,-1.09606 -0.41669,-0.26519 -0.83611,-0.55896 -1.124479,-0.96685 -0.19127,-0.28441 -0.229619,-0.64289 -0.151929,-0.9643 0.117401,-0.53758 0.421875,-0.98903 0.735356,-1.43143 1.07323,-1.4673 2.503641,-2.64633 3.473172,-4.19302 0.35477,-0.5724 0.590937,-1.26436 0.445969,-1.94097 -0.168093,-0.86299 -0.751647,-1.56975 -1.385446,-2.14715 -1.242171,-1.134 -2.773688,-1.91104 -3.951697,-3.12074 -0.43365,-0.4333 -0.760688,-1.02693 -0.714169,-1.65623 -0.01299,-0.7165 0.288174,-1.44389 0.850596,-1.89859 0.806907,-0.675 1.844098,-0.96206 2.822048,-1.28726 0.72158,-0.2433 1.468969,-0.47717 2.07636,-0.95447 0.223126,-0.1663 0.442577,-0.33747 0.66249,-0.50798 2.045446,0.071 4.096676,-0.0662 6.131409,-0.27078 2.434532,-0.2623 4.881735,-0.71689 7.1318653,-1.71359 1.5010394,-0.67 2.9193569,-1.63001 3.8814163,-2.98431 0.7221193,-1.0081 1.135581,-2.22116 1.2345511,-3.45406 0.01741,-0.2324 0.049982,-0.47358 0.00265,-0.70228 -0.1190784,-0.306 -0.5900235,-0.29831 -0.7482734,-0.031 -1.75115,1.78411 -3.8338468,3.26324 -6.1779173,4.15944 -1.992839,0.7659 -4.123431,1.12494 -6.247681,1.16014 -1.551321,0.024 -3.097001,-0.0841 -4.641061,-0.22325 -1.437698,-0.1438 -2.897669,-0.3727 -4.25142,-0.9157 -0.7638,-0.3177 -1.521704,-0.78691 -1.920812,-1.53841 -0.426331,-0.8069 -0.298545,-1.82717 0.198954,-2.57297 0.606268,-0.9681 1.52351,-1.668 2.365229,-2.41381 0.42124,-0.37939 0.841372,-0.766975 1.208712,-1.198375 0.0458,-0.1431 -0.129757,-0.188738 -0.236678,-0.198438 -0.590939,-0.177014 -1.205322,-0.306287 -1.824178,-0.317293 z m 16.9260994,13.719576 -5.292e-4,0.008 c -2.8055702,0.079 -5.6135062,0.47735 -8.2956162,1.31775 -0.7655,0.2503 -1.50681,0.5733 -2.212268,0.9617 0.067,0.2729 0.259498,0.57557 0.570507,0.58497 0.832829,0.082 1.671601,0.11556 2.508891,0.091 1.958051,-0.04 3.907649,-0.28417 5.86786,-0.18397 1.3871601,0.067 2.7995985,0.34997 4.0007883,1.09037 0.4296701,0.2809 0.8677963,0.58663 1.1585866,1.01803 0.2314178,0.3993 0.1837849,0.89781 -0.00265,1.30431 -0.301461,0.7272 -0.8225605,1.33313 -1.3224007,1.93063 -0.9762384,1.1322 -2.0876101,2.16722 -2.8556402,3.46232 -0.338399,0.5969 -0.518575,1.32598 -0.303855,1.99678 0.257839,0.9056 0.9329947,1.6128 1.6391755,2.2009 1.2203404,1.0379 2.6709793,1.79714 3.7661771,2.98225 0.3712818,0.4212 0.642948,0.96885 0.596347,1.54305 7.937e-4,0.6262 -0.2119789,1.26508 -0.6645593,1.70998 -0.5379085,0.5516 -1.266526,0.85594 -1.9761067,1.12034 -0.8541385,0.3102 -1.7495573,0.52233 -2.560566,0.94103 -0.5097406,0.2847 -0.9537246,0.66987 -1.4273026,1.00717 -0.0739,0.068 -0.01852,0.17737 0.07648,0.17777 2.2735189,-0.097 4.5777963,-0.20384 6.7783967,-0.83664 1.3244089,-0.3811 2.6353029,-0.98023 3.59771414,-1.99213 0.92481928,-0.9718 1.39685446,-2.35456 1.27692413,-3.68866 -0.11474979,-0.7941 -0.66624993,-1.44125 -1.27279134,-1.92805 -0.92196973,-0.7602 -1.99514353,-1.29931 -2.89646253,-2.08411 -0.4802716,-0.4255 -0.9407578,-0.98738 -0.9921875,-1.66088 -0.050102,-0.575 0.051223,-1.16354 0.2785348,-1.69344 0.2025095,-0.4633 0.5136912,-0.90627 0.8604118,-1.28777 0.7993195,-0.896 1.7501394,-1.69447 2.2856481,-2.79157 0.53626012,-1.07129 0.57604287,-2.3298 0.3302132,-3.4835 -0.13479991,-0.7575 -0.4843171,-1.4951 -1.0769362,-2.0004 -0.8747098,-0.794 -2.0258643,-1.18494 -3.1584635,-1.44074 -1.4996212,-0.3327 -3.0433671,-0.3858 -4.574397,-0.3762 z m -17.9084684,25.50852 c -0.29197,0.048 -0.516517,0.26173 -0.754475,0.42013 -0.925761,0.7372 -1.451666,1.86822 -1.677935,3.00912 -0.202049,0.9657 -0.174461,2.01361 0.271817,2.91041 0.634342,1.355 1.797852,2.39798 3.090252,3.11558 1.337299,0.7482 2.796304,1.24513 4.261755,1.67483 2.88857,0.8195 5.890164,1.21866 8.890415,1.25935 1.949818,0.021 3.9073532,-0.15875 5.8032621,-0.62425 1.2710504,-0.2999 2.5411906,-0.63563 3.7480901,-1.14153 1.098632,-0.4686 2.1682207,-1.12206 2.87166045,-2.11047 0.55442907,-0.77449 0.85893273,-1.71518 0.91157159,-2.66288 0.03600185,-0.853 -0.23314025,-1.6973 -0.6531901,-2.4319 -0.54429814,-0.9467 -1.40097134,-1.69678 -2.38899964,-2.15439 -1.5546916,-0.73969 -3.3581339,-0.83292 -5.0255328,-0.47232 -0.7174018,0.1507 -1.4181561,0.36866 -2.1218367,0.57206 1.3637023,0.5285 2.7879887,0.9291 4.066421,1.6552 0.4522893,0.2627 0.9390592,0.58637 1.1084586,1.10897 0.145759,0.4874 0.038933,1.0055 -0.082166,1.4857 -0.2375509,0.6651 -0.8439838,1.10045 -1.4366055,1.43196 -1.1742578,0.6697 -2.5144782,0.95342 -3.8266401,1.21542 -1.75705,0.3362 -3.563546,0.46893 -5.347475,0.31213 -1.873872,-0.1538 -3.703222,-0.58093 -5.501992,-1.10743 -1.216988,-0.3547 -2.465975,-0.73625 -3.484022,-1.52135 -0.508471,-0.3837 -0.9514,-0.8825 -1.25884,-1.4273 -0.42403,-0.7392 -0.67419,-1.56585 -0.833541,-2.38745 -0.104291,-0.5494 -0.190696,-1.09722 -0.227375,-1.65262 -0.0021,-0.1692 -0.056,-0.35333 -0.220141,-0.43253 -0.0558,-0.029 -0.119777,-0.0489 -0.182936,-0.0439 z m 25.4966336,11.85096 c -0.3190319,-0.006 -0.6376855,-0.004 -0.9549791,0.002 -2.7604799,0.091 -5.535832,0.69423 -7.9865935,1.99523 -0.859779,0.4646 -1.659646,1.02848 -2.472716,1.56838 1.61522,0.01 3.239516,-0.0613 4.8255446,-0.38654 1.5660396,-0.2838 3.1251498,-0.66637 4.7227092,-0.52917 0.6246495,0.045 1.2720717,0.0687 1.8557002,0.3173 0.3089513,0.1521 0.524047,0.46827 0.5467377,0.81287 0.090699,0.541 -0.00884,1.16077 -0.4335648,1.54357 -0.4193699,0.4096 -1.0320549,0.54081 -1.6014541,0.49661 -1.2321593,-0.094 -2.4424322,-0.37515 -3.6251012,-0.71365 -1.354111,-0.3928 -2.7021234,-0.80911 -4.0752026,-1.13171 -0.33665,-0.082 -0.673139,-0.16493 -1.009758,-0.24753 0.792631,0.9423 1.618345,1.89851 2.6980274,2.52181 1.7303988,1.0644 3.7195204,1.67785 5.73505,1.88515 1.2685686,0.1034 2.5482471,-0.04 3.78529848,-0.32349 0.96430834,-0.2434 1.93346122,-0.6471 2.62361092,-1.387 0.5636313,-0.6063 0.8880237,-1.41577 0.9291426,-2.24017 0.073401,-0.8913 -0.1026874,-1.85118 -0.6996986,-2.54558 -0.5165407,-0.6274 -1.2626869,-1.01445 -2.03036745,-1.24385 -0.91698761,-0.28148 -1.87528725,-0.37468 -2.83238575,-0.39378 z" />
          <path
             id="path2560"
             style="fill:#5f8dd3;stroke-width:0.889722"
             d="m 24.916312,141.48767 c -0.201472,0 -0.402727,-1.8e-4 -0.604099,0.01 v -0.004 c -1.900039,0.07 -3.794059,0.39063 -5.601208,0.98443 -0.277511,0.1296 -0.563216,0.39974 -0.502296,0.73484 0.051,0.3544 0.433346,0.54357 0.762744,0.53227 0.54905,0.021 1.097798,-0.04 1.646928,0 2.874801,0.094 5.732941,0.89173 8.255312,2.29443 1.3697,0.7619 2.657147,1.72207 3.774445,2.81327 1.82716,1.7847 3.269179,3.94841 4.200777,6.31951 0.92388,2.3274 1.36525,4.83945 1.258839,7.34425 -0.11752,3.1286 -1.080217,6.20439 -2.742985,8.85889 -1.54186,2.4698 -3.674568,4.56692 -6.193938,6.02392 -2.24577,1.3107 -4.766697,2.12335 -7.352006,2.38125 -0.918139,0.096 -1.851436,0.10437 -2.781226,0.0729 -0.31759,0 -0.700667,0.11898 -0.805117,0.45268 -0.111921,0.3372 0.135414,0.70382 0.464053,0.79582 0.54933,0.2422 1.144122,0.34984 1.722892,0.49764 4.67735,1.06611 9.733587,0.42297 13.973308,-1.83193 4.429461,-2.3368 7.952605,-6.35759 9.637654,-11.07839 1.588571,-4.4149 1.603168,-9.38539 -0.0047,-13.79709 -1.465778,-4.0583 -4.257696,-7.62654 -7.856368,-10.01024 -3.305559,-2.2101 -7.275039,-3.41693 -11.253057,-3.39463 z m -7.50807,3.71451 c -1.94559,-0.002 -3.884949,0.42615 -5.633765,1.25418 -0.128209,0.13121 -0.308721,0.21327 -0.39274,0.38499 h -5.29e-4 c -0.268899,0.41128 0.139102,1.01854 0.6165,0.97979 0.572291,0.006 1.127109,-0.16297 1.699639,-0.16175 1.138949,-0.0644 2.283478,0.0436 3.387907,0.31523 1.858611,0.45271 3.612227,1.37294 5.026567,2.66547 2.20498,1.9897 3.579895,4.85566 3.793567,7.79745 0.0934,1.22486 -0.02413,2.47368 -0.332279,3.63802 -0.416542,1.59715 -1.196576,3.10007 -2.235007,4.35271 -1.207339,1.4578 -2.773696,2.61156 -4.552178,3.2737 -0.442748,0.1786 -0.914273,0.28131 -1.347202,0.48215 -0.301112,0.16403 -0.512636,0.55824 -0.334865,0.89089 0.175271,0.35118 0.607973,0.44178 0.962731,0.42168 1.437101,-0.007 2.860403,-0.30413 4.203362,-0.78754 2.457421,-0.89954 4.625231,-2.55932 6.104019,-4.71858 1.910062,-2.7365 2.719332,-6.24553 2.141471,-9.57616 -0.443158,-2.78797 -1.823151,-5.42827 -3.859712,-7.40006 -2.126419,-2.08557 -4.954992,-3.45309 -7.901842,-3.74189 -0.4474,-0.0465 -0.896673,-0.0699 -1.345655,-0.0703 z m 12.937712,4.34185 c -0.132938,-0.001 -0.254146,0.0302 -0.35967,0.0987 -1.307898,0.78983 3.112466,5.32044 2.257746,11.14558 -0.344962,2.35097 -1.303253,4.87666 -3.058213,6.97787 -1.423599,1.70449 -2.802451,2.82923 -4.845183,4.02042 -8.271398,4.82331 -18.0933771,2.68627 -23.1675774,2.05207 -1.18352886,0.9511 2.0849934,2.48349 4.0576341,3.23546 6.9714193,2.6575 13.7189183,1.85277 19.3202693,0.46147 6.289018,-1.5621 10.151213,-7.44908 11.410672,-12.60388 0.995809,-4.0757 -0.235911,-8.63292 -2.282032,-12.22613 -0.887494,-1.55853 -2.40308,-3.15435 -3.333646,-3.16156 z m -54.306763,21.84363 v 0.005 c -2.76329,0.1055 -5.542928,0.50151 -8.140586,1.48001 -2.905573,1.0529 -5.645502,2.56238 -8.094081,4.44727 -1.491631,1.15831 -2.838042,2.5074 -3.963582,4.0256 -0.23725,0.3053 -0.474496,0.61082 -0.711584,0.91622 3.491968,-1.5083 7.007709,-2.9738 10.647929,-4.0876 2.889088,-0.8829 5.858001,-1.55299 8.868192,-1.86449 0.402048,-0.057 0.815822,-0.0456 1.211811,-0.13229 0.21676,-0.095 0.223337,-0.36386 0.205155,-0.56586 0.0267,-1.408 0.0538,-2.81603 0.0801,-4.22403 z m 13.556794,1.93786 c 5.3e-4,0.043 0.0011,0.0871 0.0011,0.13023 l 5.29e-4,5.3e-4 c 0.0158,1.4796 0.03133,2.9594 0.04703,4.43901 2.1763487,0.67719 4.2878904,1.53369 6.3660204,2.46909 4.78574891,2.0457 9.5364511,4.21594 14.5236586,5.73454 4.004842,1.2199 8.173498,1.9696 12.368239,1.97611 0.818349,0 1.639867,-6e-5 2.453595,-0.0941 3.097972,-0.4465 6.137198,-1.32846 8.976199,-2.64996 1.788369,-0.8485 3.502527,-1.91267 4.893757,-3.33417 0.613759,-0.6409 1.170167,-1.35065 1.570447,-2.14405 0.0818,-0.3138 -0.307755,-0.58245 -0.583943,-0.44235 -2.221772,0.7038 -4.327715,1.71467 -6.472476,2.61018 -1.693799,0.70619 -3.431645,1.3265 -5.221385,1.711 -1.756539,0.3848 -3.554526,0.54646 -5.352645,0.47336 -3.694269,-0.1367 -7.308929,-1.07377 -10.797791,-2.27997 -3.7085298,-1.2884 -7.2945044,-2.88371 -10.9166449,-4.39611 -3.0729317,-1.2907 -6.1787616,-2.51644 -9.3746213,-3.47214 -0.8237299,-0.2541 -1.6524155,-0.49312 -2.4809878,-0.73122 z m -13.572296,4.80746 c -0.0352,0 -0.0703,-1.8e-4 -0.105421,0.01 v -0.003 c -4.12206,0.2208 -8.181575,1.04461 -12.189436,1.99471 -0.646501,0.14431 -1.293505,0.29993 -1.904278,0.56173 -0.171629,0.066 -0.343185,0.13319 -0.514696,0.19999 0.909529,0.3135 1.851491,0.56101 2.8174,0.59531 2.359358,0.1618 4.72449,0.0303 7.086388,0.0253 1.581361,-0.018 3.163128,-0.0102 4.743897,0.0398 0.02191,-1.1414 0.04385,-2.28268 0.06615,-3.42408 z m 13.630174,1.86811 c 2.65e-4,0.045 7.94e-4,0.0887 0.0011,0.13384 0.01,1.3435 0.01913,2.68726 0.02842,4.03076 1.6339211,0.6405 3.2071997,1.43833 4.8074579,2.16473 4.0089507,1.86949 8.0540409,3.72147 12.326379,4.90977 3.5718221,1.0022 7.2859821,1.52305 10.9988141,1.46245 2.448509,-0.028 4.911725,-0.24697 7.281724,-0.88677 1.37785,-0.3838 2.737959,-0.9405 3.858681,-1.8464 0.373179,-0.3079 0.725707,-0.6485 1.008205,-1.0418 0.150353,-0.3126 -0.238638,-0.65611 -0.540017,-0.52451 -3.961209,0.7665 -7.98558,1.38567 -12.032339,1.19527 -3.227451,-0.1349 -6.417421,-0.82664 -9.4691918,-1.88774 -2.6803799,-0.9306 -5.2542598,-2.13091 -7.77471761,-3.42201 -3.37701199,-1.7047 -6.88622039,-3.14949 -10.49445159,-4.28759 z" />
          <path
             id="path2568"
             style="color:#000000;overflow:visible;fill:#dc6311;fill-opacity:1;stroke-width:1.42797"
             d="m -21.687636,149.18369 c -0.285541,0.025 -0.42359,0.3374 -0.42046,0.5928 -0.0459,0.6712 -0.0287,1.345 -0.0528,2.0172 -0.262249,13.4115 -0.524891,26.823 -0.78691,40.2346 3.80157,0 7.603141,0 11.404711,0 -0.0944,-9.8391 -0.188622,-19.6782 -0.28258,-29.5173 -0.913831,-2.7939 -1.814272,-5.5918 -2.750852,-8.3779 -0.08,-0.2824 -0.4479,-0.5244 -0.699109,-0.2894 -0.21064,0.2233 -0.164999,0.5588 -0.19304,0.8403 -0.11235,5.6029 -0.2208,11.2061 -0.33153,16.8091 -0.10617,5.3992 -0.212339,10.7985 -0.318511,16.1978 -0.703458,0 -1.40693,0 -2.110399,0 -0.0898,-9.6493 -0.180041,-19.2986 -0.2697,-28.9478 -0.899369,-3.0369 -1.79129,-6.0765 -2.698081,-9.1109 -0.0976,-0.2001 -0.22489,-0.4679 -0.490759,-0.4485 z" />
          <path
             id="path2570"
             style="color:#000000;font-style:normal;font-variant:normal;font-weight:normal;font-stretch:normal;font-size:medium;line-height:normal;font-family:sans-serif;font-variant-ligatures:normal;font-variant-position:normal;font-variant-caps:normal;font-variant-numeric:normal;font-variant-alternates:normal;font-variant-east-asian:normal;font-feature-settings:normal;font-variation-settings:normal;text-indent:0;text-align:start;text-decoration:none;text-decoration-line:none;text-decoration-style:solid;text-decoration-color:#000000;letter-spacing:normal;word-spacing:normal;text-transform:none;writing-mode:lr-tb;direction:ltr;text-orientation:mixed;dominant-baseline:auto;baseline-shift:baseline;text-anchor:start;white-space:normal;shape-padding:0;shape-margin:0;inline-size:0;clip-rule:nonzero;display:inline;overflow:visible;visibility:visible;isolation:auto;mix-blend-mode:normal;color-interpolation:sRGB;color-interpolation-filters:linearRGB;solid-color:#000000;solid-opacity:1;vector-effect:none;fill:#ffd738;fill-opacity:1;fill-rule:nonzero;stroke:none;stroke-width:4.31128;stroke-linecap:butt;stroke-linejoin:miter;stroke-miterlimit:4;stroke-dasharray:none;stroke-dashoffset:0;stroke-opacity:1;color-rendering:auto;image-rendering:auto;shape-rendering:auto;text-rendering:auto;enable-background:accumulate;stop-color:#000000"
             d="m -34.727718,122.21749 c -3.109971,3.5422 -5.680141,7.5805 -7.40822,11.9728 -2.41445,6.0382 -3.45653,12.6264 -2.976631,19.1148 0.401061,5.5835 1.917552,11.0794 4.40564,16.0915 0.12051,0.2431 0.245042,0.484 0.341281,0.7372 0.467641,0.8864 0.94715,1.7676 1.468419,2.6242 0.191871,0.3213 0.391012,0.6383 0.589711,0.9556 1.32678,-0.72 2.653819,-1.4396 3.98077,-2.1594 -1.278681,-2.3156 -2.55312,-4.6408 -3.49132,-7.116 -2.035169,-5.1181 -2.963801,-10.6613 -2.673651,-16.1612 0.1612,-3.1034 0.702101,-6.1804 1.598602,-9.1581 0.925668,-3.1096 2.135518,-6.1599 3.914198,-8.885 0.64907,-1.0076 1.337011,-1.982 2.107912,-2.8985 0.579789,-0.5628 1.02327,-1.3413 0.978468,-2.1705 -0.0777,-0.8387 -0.605938,-1.5634 -1.2276,-2.0988 -0.46237,-0.3901 -1.005128,-0.6713 -1.561079,-0.9029 -0.0155,0.018 -0.031,0.036 -0.0465,0.054 z" />
          <path
             id="path2572"
             style="color:#000000;font-style:normal;font-variant:normal;font-weight:normal;font-stretch:normal;font-size:medium;line-height:normal;font-family:sans-serif;font-variant-ligatures:normal;font-variant-position:normal;font-variant-caps:normal;font-variant-numeric:normal;font-variant-alternates:normal;font-variant-east-asian:normal;font-feature-settings:normal;font-variation-settings:normal;text-indent:0;text-align:start;text-decoration:none;text-decoration-line:none;text-decoration-style:solid;text-decoration-color:#000000;letter-spacing:normal;word-spacing:normal;text-transform:none;writing-mode:lr-tb;direction:ltr;text-orientation:mixed;dominant-baseline:auto;baseline-shift:baseline;text-anchor:start;white-space:normal;shape-padding:0;shape-margin:0;inline-size:0;clip-rule:nonzero;display:inline;overflow:visible;visibility:visible;isolation:auto;mix-blend-mode:normal;color-interpolation:sRGB;color-interpolation-filters:linearRGB;solid-color:#000000;solid-opacity:1;vector-effect:none;fill:#ffd738;fill-opacity:1;fill-rule:nonzero;stroke:none;stroke-width:4.31128;stroke-linecap:butt;stroke-linejoin:miter;stroke-miterlimit:4;stroke-dasharray:none;stroke-dashoffset:0;stroke-opacity:1;color-rendering:auto;image-rendering:auto;shape-rendering:auto;text-rendering:auto;enable-background:accumulate;stop-color:#000000"
             d="m 0.20180294,107.99279 c -2.02880914,0.1913 -4.08811934,0.472 -5.96978044,1.2965 -0.8981387,0.3838 -1.7375902,0.8892 -2.5565682,1.418 1.0956687,0.6387 2.3467086,0.9834 3.6081996,1.0689 2.0728596,0.1617 4.16041943,0.1433 6.2195207,0.4104 3.0163293,0.3522 5.9876292,1.0648 8.8736914,2.0014 2.17166,0.6901 4.323439,1.4798 6.359178,2.499 4.683781,2.3108 8.89123,5.5934 12.261051,9.585 3.32809,3.9285 5.8514,8.5137 7.382981,13.4331 0.256299,0.8128 0.480721,1.6398 0.689229,2.4671 0.140692,0.308 0.445272,0.4885 0.65361,0.7449 1.70828,1.7492 3.248081,3.6574 4.657791,5.6535 0.185151,-0.1531 0.391351,-0.3789 0.31727,-0.6396 -0.403799,-5.0591 -1.67319,-10.0523 -3.789169,-14.6677 -2.684822,-5.8844 -6.692241,-11.1672 -11.669271,-15.3017 -4.7255,-3.9352 -10.306481,-6.8346 -16.240101,-8.4468 -3.5153516,-0.9602 -7.1527903,-1.4793 -10.79763206,-1.522 z" />
        </g>
        <g
           id="g895"
           transform="matrix(1.1038319,0,0,1.1038319,-14.598495,-15.946611)">
          <text
             xml:space="preserve"
             id="text868"
             style="color:#000000;font-style:italic;font-variant:normal;font-weight:500;font-stretch:normal;line-height:125%;font-family:'Crimson Pro';-inkscape-font-specification:'Crimson Pro Medium Italic';text-align:center;letter-spacing:0px;word-spacing:0px;white-space:pre;shape-inside:url(#rect870);display:inline;overflow:visible;visibility:visible;fill:#30587f;fill-opacity:1;fill-rule:nonzero;stroke:none;stroke-width:0.147792;stroke-linecap:butt;stroke-linejoin:miter;stroke-opacity:1;marker:none;marker-start:none;marker-mid:none;marker-end:none;enable-background:accumulate"
             transform="matrix(1.6916419,0,0,1.6916419,10.141859,-391.77752)"><tspan
               x="14.293945"
               y="299.38717"><tspan
                 style="font-style:italic;font-variant:normal;font-weight:500;font-stretch:normal;font-family:'Crimson Pro';-inkscape-font-specification:'Crimson Pro Medium Italic';fill:#30587f;fill-opacity:1">Sequoia Pacific Realty</tspan></tspan></text>
          <text
             xml:space="preserve"
             id="text876"
             style="color:#000000;font-style:normal;font-variant:normal;font-weight:500;font-stretch:normal;line-height:125%;font-family:'Crimson Pro';-inkscape-font-specification:'Crimson Pro Medium';text-align:center;letter-spacing:0px;word-spacing:0px;white-space:pre;shape-inside:url(#rect878);display:inline;overflow:visible;visibility:visible;fill:#30587f;fill-opacity:1;fill-rule:nonzero;stroke:none;stroke-width:0.147792;stroke-linecap:butt;stroke-linejoin:miter;stroke-opacity:1;marker:none;marker-start:none;marker-mid:none;marker-end:none;enable-background:accumulate"
             transform="matrix(0.84182165,0,0,0.84182165,74.390595,-120.86432)"><tspan
               x="-23.616211"
               y="299.38717"><tspan
                 style="font-style:normal;font-variant:normal;font-weight:500;font-stretch:normal;font-family:'Crimson Pro';-inkscape-font-specification:'Crimson Pro Medium';fill:#30587f;fill-opacity:1">Real Estate &amp; Property Management</tspan></tspan></text>
          <text
             xml:space="preserve"
             id="text882"
             style="color:#000000;font-style:normal;font-variant:normal;font-weight:500;font-stretch:normal;line-height:125%;font-family:'Crimson Pro';-inkscape-font-specification:'Crimson Pro Medium';text-align:center;letter-spacing:0px;word-spacing:0px;white-space:pre;shape-inside:url(#rect884);display:inline;overflow:visible;visibility:visible;fill:#30587f;fill-opacity:1;fill-rule:nonzero;stroke:none;stroke-width:0.147792;stroke-linecap:butt;stroke-linejoin:miter;stroke-opacity:1;marker:none;marker-start:none;marker-mid:none;marker-end:none;enable-background:accumulate"
             transform="matrix(0.55501125,0,0,0.55501125,84.828451,-13.591548)"><tspan
               x="-54.430664"
               y="299.38717"><tspan
                 style="font-style:normal;font-variant:normal;font-weight:500;font-stretch:normal;font-family:'Crimson Pro';-inkscape-font-specification:'Crimson Pro Medium';fill:#30587f;fill-opacity:1">Companion theme for the Sequoia Pacific Realty plugin</tspan></tspan></text>
          <rect
             style="color:#000000;overflow:visible;fill:#888888;fill-opacity:1;stroke-width:0.255627"
             id="rect886"
             width="147.10834"
             height="0.26458332"
             x="54.944019"
             y="140.93503" />
        </g>
      </g>
    </g>
  </g>
</svg>
