<?xml version="1.0" encoding="UTF-8" standalone="no"?>
<svg
   xmlns:dc="http://purl.org/dc/elements/1.1/"
   xmlns:cc="http://creativecommons.org/ns#"
   xmlns:rdf="http://www.w3.org/1999/02/22-rdf-syntax-ns#"
   xmlns:svg="http://www.w3.org/2000/svg"
   xmlns="http://www.w3.org/2000/svg"
   xmlns:sodipodi="http://sodipodi.sourceforge.net/DTD/sodipodi-0.dtd"
   xmlns:inkscape="http://www.inkscape.org/namespaces/inkscape"
   width="512"
   height="512"
   viewBox="0 0 512 512"
   version="1.1"
   id="svg8"
   sodipodi:docname="sequoia-pacific-web-favicon.svg"
   inkscape:version="1.0.2-2 (e86c870879, 2021-01-15)">
  <metadata
     id="metadata13">
    <rdf:RDF>
      <cc:Work
         rdf:about="">
        <dc:format>image/svg+xml</dc:format>
        <dc:type
           rdf:resource="http://purl.org/dc/dcmitype/StillImage" />
        <dc:title />
      </cc:Work>
    </rdf:RDF>
  </metadata>
  <sodipodi:namedview
     pagecolor="#ffffff"
     bordercolor="#666666"
     borderopacity="1"
     objecttolerance="10"
     gridtolerance="10"
     guidetolerance="10"
     inkscape:pageopacity="0"
     inkscape:pageshadow="2"
     inkscape:window-width="1920"
     inkscape:window-height="1017"
     id="namedview11"
     showgrid="false"
     inkscape:zoom="0.5769926"
     inkscape:cx="256"
     inkscape:cy="308.26653"
     inkscape:window-x="-8"
     inkscape:window-y="-8"
     inkscape:window-maximized="1"
     inkscape:current-layer="svg8"
     inkscape:document-rotation="0" />
  <defs
     id="defs2" />
  <rect
     style="color:#000000;overflow:visible;fill:#32475c;fill-opacity:1;stroke-width:3.41584"
     id="rect2540"
     width="511.99997"
     height="511.99997"
     x="1.350415e-05"
     y="1.1273438e-05"
     inkscape:export-xdpi="96"
     inkscape:export-ydpi="96" />
  <rect
     style="color:#000000;overflow:visible;fill:none;stroke-width:5.52219"
     id="rect918"
     width="512"
     height="512"
     x="-1.7546387e-06"
     y="-3.9853517e-06"
     inkscape:export-xdpi="96"
     inkscape:export-ydpi="96" />
  <path
     id="path2537"
     style="color:#000000;overflow:visible;fill:#5aab21;fill-opacity:1;stroke-width:12.6438"
     d="m 194.97266,10.007812 v 0.002 c -5.18264,0.109606 -10.53135,0.943617 -15.04297,3.642578 -3.49663,2.044724 -6.33788,5.424334 -7.20899,9.435547 -1.16379,4.28674 -1.02442,8.915296 0.44336,13.111329 0.75863,2.28699 1.93642,4.40417 2.40625,6.76562 0.19351,1.28504 -0.32824,2.57018 -1.1914,3.50977 -1.42655,1.73594 -3.61552,2.56882 -5.75586,3.01367 -3.28105,0.73399 -6.64117,1.05862 -9.92188,1.86328 -4.06511,0.94715 -8.10249,2.61826 -11.09765,5.60938 -3.85478,3.75949 -6.01756,9.17812 -5.78516,14.56054 0.12926,4.73311 2.07339,9.47452 5.62305,12.66407 3.39605,3.18085 8.095,4.80863 12.72265,4.70507 5.85464,0 11.4951,-1.97745 16.77344,-4.35742 7.91335,-3.59395 15.06368,-8.59166 22.17773,-13.52734 -4.37219,0.18898 -8.83143,0.42037 -13.01367,1.77344 -6.37462,1.80283 -12.56022,4.43853 -19.17968,5.25 -1.5269,0.1663 -3.18364,0.18586 -4.6504,-0.1543 -1.94241,-0.41499 -3.85774,-1.73053 -4.44531,-3.70117 -0.60083,-2.90948 0.0298,-6.24756 2.28321,-8.31836 2.63572,-2.5731 6.22128,-3.77151 9.63476,-4.92578 4.35908,-1.41997 8.92244,-2.42458 12.94922,-4.70703 2.44921,-1.44983 4.38919,-3.85601 4.95703,-6.67969 0.82016,-3.60416 -0.0597,-7.292 -0.85351,-10.81641 -0.65171,-2.784 -1.40839,-5.518376 -1.34961,-8.419919 0.0397,-1.824 1.00191,-3.666424 2.67382,-4.494141 2.25343,-1.277102 4.75759,-1.569476 7.28711,-1.8125 3.60265,-0.309921 7.40925,0.41428 10.375,2.564453 1.98066,1.453606 3.61086,3.486426 4.79688,5.667969 1.52028,2.866018 2.69648,5.966588 3.10547,9.199218 0.40248,3.648 -0.25999,7.27076 -1.35938,10.76758 -0.79018,2.4548 -1.7546,4.95561 -2.65039,7.41797 3.7279,-1.84252 7.60879,-3.74961 10.32813,-7 3.57339,-4.16655 5.24659,-9.65545 5.61328,-15.06055 0.42727,-6.403653 -1.80395,-12.94464 -6.09375,-17.724609 -4.27911,-4.980283 -10.37464,-8.357162 -16.87305,-9.316406 -2.53516,-0.420661 -5.11,-0.554679 -7.67773,-0.507813 z m 24.85937,54.853514 c -0.52852,-0.0133 -1.05601,-0.0114 -1.58008,0.004 -4.81428,0.13606 -9.6227,1.74346 -13.38476,4.78711 -4.03616,3.14873 -6.79486,7.65047 -8.60352,12.38281 -1.29944,3.16952 -2.32084,6.52297 -4.33008,9.33985 -1.05951,1.45587 -2.66913,2.69386 -4.54687,2.67383 -3.5328,0.21165 -7.03852,-0.37886 -10.55469,-0.79688 -7.64046,-0.98532 -15.3494,-2.24344 -23.07226,-1.53516 -3.95513,0.39081 -8.03161,1.45192 -11.13086,4.06055 -1.80227,1.57153 -3.22954,3.51769 -4.61133,5.455074 -2.30189,3.38419 -3.66607,7.40652 -3.80274,11.50391 -0.16365,3.04857 -0.049,6.15404 0.73828,9.11719 1.41914,5.01959 4.87023,9.23321 8.92774,12.40234 5.67375,4.42847 12.52811,7.20848 19.57617,8.52148 3.78694,0.67805 7.68485,0.89249 11.50391,0.38868 1.25083,-0.35906 1.25014,-2.35531 0.0684,-2.80469 -4.94854,-2.57008 -10.1871,-4.73479 -14.56836,-8.25391 -2.57405,-2.0829 -4.46667,-4.84894 -6.16016,-7.66015 -1.0933,-1.91056 -1.97753,-3.94799 -2.25586,-6.11329 -0.26381,-2.26166 0.12095,-4.56026 0.79688,-6.71875 0.78746,-2.43401 2.38097,-4.66505 4.66211,-5.89453 2.45522,-1.39615 5.27785,-1.85619 8.04492,-2.02929 6.46715,-0.32882 12.88036,0.71198 19.3164,1.23242 3.81729,0.31748 7.67929,0.55882 11.49219,0.0762 2.96602,-0.52157 5.58338,-2.42619 7.19531,-4.94336 2.40102,-3.547464 3.39569,-7.776334 4.64649,-11.812494 0.90327,-2.98205 1.804,-6.04938 3.5918,-8.64063 1.10343,-1.52277 2.88861,-2.69803 4.76367,-2.74414 2.34531,-0.16252 4.63603,0.58364 6.78711,1.43555 0.82692,0.33638 1.43853,1.05832 1.65234,1.92383 0.56882,2.31609 -0.1991,4.81172 -1.59961,6.6875 -1.54802,2.14979 -4.1181,3.42801 -6.74219,3.57617 -1.53773,0.1285 -3.02769,-0.16617 -4.54101,-0.28711 -0.83494,-0.0416 -1.79768,0.51385 -1.77149,1.43945 -0.0427,0.91465 0.78004,1.49397 1.47071,1.91993 4.01794,2.74885 9.49381,2.90855 13.82031,0.78711 4.55554,-2.1086 8.27211,-6.0121 10.11523,-10.6836 1.97851,-5.66627 -0.47047,-12.39466 -5.39648,-15.73047 -3.0617,-2.13968 -6.81791,-2.97304 -10.51758,-3.0664 z m -2.35547,38.531254 c -6.43608,0.1285 -12.78861,1.40372 -19,3.00586 -0.68927,0.26834 -0.4828,1.33344 0.19336,1.46875 2.37778,0.99553 4.82617,1.82425 7.34961,2.36133 3.57872,0.84245 7.2661,1.48572 10.52735,3.30859 1.81334,0.94979 3.41498,2.55728 3.8164,4.62695 0.28611,1.26236 -0.042,2.63275 -0.91406,3.59766 -1.7147,2.0451 -3.96892,3.53375 -6.10352,5.09961 -2.5299,1.83269 -5.14537,3.72845 -6.875,6.38281 -1.21319,1.97329 -1.57168,4.56643 -0.48828,6.67578 1.28859,2.70161 3.81198,4.48652 6.1836,6.16992 3.3377,2.29758 7.00883,4.15353 9.88086,7.06641 0.78708,0.82923 1.41951,2.12388 0.77929,3.2207 -0.71403,1.40221 -1.8485,2.55475 -3.04101,3.5586 -1.45017,1.09077 -3.15092,1.77812 -4.82227,2.24414 -5.73604,1.48082 -11.62716,2.38511 -17.26172,4.23633 -0.73508,0.3137 -1.01276,1.4939 -0.24219,1.92968 0.77224,0.4543 1.7025,0.48392 2.54688,0.73828 7.01374,1.56171 14.3389,1.64644 21.4082,0.39844 4.4434,-0.85644 8.90342,-2.3625 12.45508,-5.25195 2.51206,-2.07156 4.3662,-5.00055 4.86328,-8.24414 0.57657,-3.20769 -0.11636,-6.76577 -2.37304,-9.20508 -2.33447,-2.70236 -5.71894,-4.06775 -8.71876,-5.85547 -0.76535,-0.48983 -1.66301,-1.01586 -1.9707,-1.91992 -0.15382,-1.02879 0.58655,-1.90237 1.09766,-2.71875 2.19753,-3.03005 4.97994,-5.55241 7.66015,-8.14063 1.63854,-1.66223 3.3161,-3.38019 4.34375,-5.5039 1.02036,-2.13808 1.26886,-4.61309 0.70704,-6.91406 -0.89874,-4.35478 -4.07049,-8.10026 -8.12305,-9.87891 -4.30912,-2.04548 -9.16701,-2.50692 -13.87891,-2.45703 z m -61.69531,43.84375 c -0.33414,-0.006 -0.66734,-0.001 -1.00195,0.0117 -7.27091,0.257 -14.14869,4.03657 -18.81055,9.53125 -3.01969,3.58148 -5.25428,8.05987 -5.33984,12.8164 0.0457,3.92844 1.02683,7.84757 2.79882,11.35157 2.36126,4.58343 6.30424,8.24458 10.86719,10.58789 5.35171,2.81871 11.30608,4.19598 17.2793,4.95312 -5.49633,0.41761 -10.96336,1.13528 -16.26953,2.67774 -5.00523,1.44831 -9.95678,3.72609 -13.57031,7.58007 -3.47914,3.70432 -5.24451,8.95415 -4.72657,14.00586 0.50963,3.06369 2.68863,5.52732 5.07227,7.36719 3.99666,3.26551 8.85749,5.45298 12.3418,9.33984 1.40874,1.63427 2.288,3.784 2.10156,5.9629 -0.051,3.02059 -1.18074,5.97492 -3.06446,8.32617 -2.88642,3.78973 -6.82758,6.71997 -9.23828,10.88086 -1.65301,2.76434 -2.49314,5.98328 -2.46093,9.20117 -1.2e-4,2.91477 0.49656,5.84678 1.54296,8.57031 1.51363,3.456 4.68716,5.88008 8.05079,7.39453 4.33016,1.95704 9.06692,2.79659 13.76367,3.28906 6.6864,0.64026 13.43082,0.38742 20.10547,-0.26757 7.16239,-0.74533 14.27805,-2.07046 21.16601,-4.1836 3.07351,-0.99515 6.07739,-2.24216 8.90625,-3.80273 0.71902,-0.50835 0.52179,-1.85297 -0.41406,-1.96485 -1.19441,-0.27968 -2.4314,-0.29343 -3.64648,-0.43554 -9.93136,-0.77178 -19.87039,1.0224 -29.78126,0.52539 -5.2343,-0.27591 -10.59446,-1.30869 -15.08593,-4.14258 -1.57489,-1.00233 -3.1601,-2.11263 -4.25,-3.6543 -0.72291,-1.07489 -0.86785,-2.42979 -0.57422,-3.64453 0.44372,-2.03187 1.59449,-3.73809 2.7793,-5.41015 4.0563,-5.54571 9.46258,-10.00187 13.12695,-15.84766 1.34086,-2.1634 2.23346,-4.77871 1.68555,-7.33594 -0.63531,-3.26173 -2.84087,-5.93293 -5.23633,-8.11523 -4.69482,-4.28599 -10.48323,-7.22283 -14.93555,-11.79492 -1.63899,-1.63767 -2.87504,-3.88131 -2.69922,-6.25977 -0.0491,-2.70803 1.08916,-5.45723 3.21485,-7.17578 3.04973,-2.55118 6.96982,-3.63613 10.66601,-4.86524 2.72723,-0.91955 5.55201,-1.80345 7.84766,-3.60742 0.84331,-0.62854 1.67273,-1.27551 2.5039,-1.91992 7.73082,0.2684 15.4835,-0.2502 23.17383,-1.02344 9.20138,-0.99137 18.45065,-2.7095 26.95508,-6.47656 5.67322,-2.53228 11.03379,-6.16068 14.66992,-11.2793 2.72927,-3.81014 4.29196,-8.3949 4.66602,-13.05468 0.0658,-0.87837 0.18891,-1.78992 0.01,-2.6543 -0.45006,-1.15654 -2.23001,-1.12746 -2.82812,-0.11719 -6.61852,6.74306 -14.49013,12.33349 -23.34961,15.72071 -7.53199,2.89474 -15.58462,4.25172 -23.61328,4.38476 -5.86326,0.0907 -11.7052,-0.31802 -17.54102,-0.84375 -5.43382,-0.5435 -10.95182,-1.40865 -16.06836,-3.46094 -2.8868,-1.20075 -5.75132,-2.97414 -7.25976,-5.81445 -1.61133,-3.0497 -1.12836,-6.90584 0.75195,-9.72461 2.29141,-3.65896 5.75815,-6.30427 8.93945,-9.12305 1.59209,-1.43395 3.17999,-2.8988 4.56836,-4.52929 0.1731,-0.54085 -0.49042,-0.71334 -0.89453,-0.75 -2.23347,-0.66903 -4.55555,-1.15762 -6.89453,-1.19922 z m 63.97266,51.85351 -0.002,0.0293 c -10.60373,0.29858 -21.2164,1.80415 -31.35351,4.98047 -2.89323,0.94602 -5.69503,2.1668 -8.36133,3.63477 0.25323,1.03143 0.98078,2.1754 2.15625,2.21093 3.1477,0.30992 6.31786,0.43673 9.48242,0.34375 7.40051,-0.15118 14.76907,-1.07402 22.17774,-0.69531 5.24281,0.25323 10.58116,1.32273 15.12109,4.12109 1.62395,1.06167 3.27986,2.21717 4.37891,3.84766 0.87465,1.50917 0.69462,3.39331 -0.01,4.92969 -1.13938,2.74847 -3.10889,5.0386 -4.99805,7.29687 -3.68972,4.27918 -7.89018,8.19107 -10.79297,13.08594 -1.27899,2.256 -1.95997,5.01157 -1.14843,7.54688 0.97451,3.42274 3.52628,6.09561 6.19531,8.31835 4.61231,3.92278 10.09504,6.79237 14.23437,11.27149 1.40327,1.59194 2.43004,3.66183 2.25391,5.83203 0.003,2.36674 -0.80118,4.78138 -2.51172,6.46289 -2.03304,2.08479 -4.78687,3.23507 -7.46875,4.23438 -3.22824,1.17241 -6.6125,1.97415 -9.67773,3.55664 -1.92658,1.07603 -3.60463,2.5318 -5.39453,3.80664 -0.27931,0.257 -0.07,0.67036 0.28906,0.67187 8.59283,-0.36661 17.30191,-0.77042 25.61914,-3.16211 5.00564,-1.44038 9.9602,-3.70479 13.59766,-7.52929 3.49538,-3.67295 5.27945,-8.89914 4.82617,-13.94141 -0.4337,-3.00132 -2.51811,-5.44724 -4.81055,-7.28711 -3.48461,-2.8732 -7.5407,-4.91078 -10.94726,-7.87695 -1.8152,-1.60819 -3.55562,-3.73184 -3.75,-6.27735 -0.18936,-2.17323 0.1936,-4.39762 1.05273,-6.40039 0.76539,-1.75105 1.94151,-3.4253 3.25195,-4.86718 3.02105,-3.38646 6.6147,-6.40427 8.63867,-10.55079 2.02681,-4.049 2.17717,-8.80557 1.24805,-13.16601 -0.50948,-2.86299 -1.83049,-5.65075 -4.07031,-7.56055 -3.30599,-3.00094 -7.65681,-4.47851 -11.9375,-5.44531 -5.66786,-1.25745 -11.50249,-1.45816 -17.28906,-1.42188 z M 152.06836,295.5 c -1.10351,0.18142 -1.95219,0.98921 -2.85156,1.58789 -3.49894,2.78627 -5.48661,7.06098 -6.3418,11.37305 -0.76365,3.64989 -0.65938,7.61052 1.02734,11 2.39751,5.12126 6.79503,9.0632 11.67969,11.77539 5.05436,2.82784 10.56871,4.70601 16.10742,6.33008 10.91743,3.09732 22.26204,4.60594 33.60157,4.75976 7.36939,0.0794 14.76795,-0.6 21.93359,-2.35937 4.80397,-1.13348 9.6045,-2.40239 14.16601,-4.31446 4.15231,-1.77108 8.19485,-4.24087 10.85352,-7.97656 2.09548,-2.92724 3.24636,-6.48259 3.44531,-10.06445 0.13607,-3.22394 -0.88116,-6.41497 -2.46875,-9.19141 -2.05719,-3.57808 -5.29501,-6.41306 -9.02929,-8.14258 -5.876,-2.79571 -12.69216,-3.14805 -18.99414,-1.78515 -2.71144,0.56957 -5.35996,1.39335 -8.01954,2.16211 5.15415,1.99748 10.53728,3.51154 15.36915,6.25586 1.70944,0.99288 3.5492,2.21622 4.18945,4.1914 0.5509,1.84214 0.14715,3.80031 -0.31055,5.61524 -0.89783,2.51376 -3.18986,4.15919 -5.42969,5.41211 -4.43814,2.53115 -9.50354,3.60351 -14.46289,4.59375 -6.64082,1.27067 -13.46852,1.77231 -20.21093,1.17968 -7.08235,-0.58129 -13.99643,-2.19562 -20.79493,-4.18554 -4.59964,-1.3406 -9.32022,-2.7827 -13.16796,-5.75 -1.92178,-1.45021 -3.59584,-3.33545 -4.75782,-5.39453 -1.60263,-2.79383 -2.54812,-5.91818 -3.15039,-9.02344 -0.39417,-2.07647 -0.72074,-4.14695 -0.85937,-6.2461 -0.008,-0.63949 -0.21166,-1.33542 -0.83203,-1.63476 -0.2109,-0.10961 -0.4527,-0.18491 -0.69141,-0.16602 z m 96.36523,44.79102 c -1.20579,-0.0241 -2.41015,-0.0162 -3.60937,0.006 -10.43331,0.34393 -20.92283,2.62385 -30.18555,7.54101 -3.24956,1.75597 -6.27268,3.88717 -9.3457,5.92773 6.10477,0.0378 12.24384,-0.23183 18.23828,-1.46093 5.91889,-1.07263 11.81159,-2.51855 17.84961,-2 2.36088,0.17008 4.80783,0.25963 7.01367,1.19922 1.16769,0.57486 1.98065,1.76984 2.06641,3.07226 0.3428,2.04473 -0.0334,4.38718 -1.63867,5.83399 -1.58502,1.54809 -3.90068,2.044 -6.05274,1.87695 -4.65698,-0.35528 -9.23124,-1.4179 -13.70117,-2.69727 -5.1179,-1.48459 -10.21275,-3.05806 -15.40234,-4.27734 -1.27238,-0.30992 -2.54415,-0.62336 -3.81641,-0.93555 2.99577,3.56145 6.11658,7.17547 10.19727,9.53125 6.54009,4.02293 14.05803,6.34151 21.67578,7.125 4.79459,0.39081 9.63117,-0.15116 14.30664,-1.22265 3.64463,-0.91994 7.30757,-2.44572 9.91601,-5.24219 2.13026,-2.29153 3.35631,-5.35096 3.51172,-8.4668 0.27742,-3.36869 -0.38811,-6.99659 -2.64453,-9.62109 -1.95228,-2.37128 -4.77236,-3.83415 -7.67383,-4.70117 -3.46578,-1.06385 -7.0877,-1.41611 -10.70508,-1.48828 z"
     inkscape:export-xdpi="96"
     inkscape:export-ydpi="96" />
  <path
     id="path2560"
     style="fill:#5f8dd3;stroke-width:3.36273"
     d="m 350.17188,308.41406 c -0.76147,0 -1.52212,-6.8e-4 -2.28321,0.0371 v -0.0137 c -7.18125,0.26457 -14.33975,1.47642 -21.16992,3.7207 -1.04886,0.48983 -2.12869,1.51083 -1.89844,2.77735 0.19276,1.33946 1.63784,2.05442 2.88281,2.01172 2.07515,0.0794 4.14916,-0.15119 6.22461,0 10.86539,0.35527 21.66781,3.37033 31.20118,8.67187 5.17682,2.87962 10.04276,6.50859 14.26562,10.63281 6.9058,6.74533 12.35595,14.92313 15.87695,23.88477 3.49183,8.79647 5.16,18.29085 4.75782,27.75781 -0.44417,11.82463 -4.08271,23.44967 -10.36719,33.48242 -5.8275,9.33468 -13.88813,17.26081 -23.41016,22.76758 -8.48795,4.95383 -18.01586,8.02526 -27.78711,9 -3.47013,0.36284 -6.99755,0.39445 -10.51172,0.27539 -1.20034,0 -2.64819,0.44971 -3.04296,1.71094 -0.42301,1.27446 0.5118,2.6601 1.7539,3.00781 2.07621,0.9154 4.32424,1.32225 6.51172,1.88086 17.67817,4.02936 36.78836,1.59863 52.8125,-6.92383 16.74127,-8.832 30.05709,-24.0287 36.42578,-41.87109 6.00405,-16.68624 6.05922,-35.47234 -0.0176,-52.14649 -5.53995,-15.33845 -16.09208,-28.82472 -29.69336,-37.83398 -12.49345,-8.35313 -27.49621,-12.91436 -42.53124,-12.83008 z m -28.37696,14.03906 c -7.35341,-0.007 -14.68327,1.61066 -21.29297,4.74024 -0.48457,0.49591 -1.16682,0.80606 -1.48437,1.45508 h -0.002 c -1.01631,1.55444 0.52574,3.84958 2.33008,3.70312 2.16299,0.0227 4.25994,-0.61594 6.42383,-0.61133 4.30469,-0.2434 8.63047,0.16485 12.80469,1.19141 7.02467,1.71103 13.65251,5.18907 18.99805,10.07422 8.33378,7.52013 13.53031,18.35209 14.33789,29.4707 0.353,4.62936 -0.0912,9.34931 -1.25586,13.75 -1.57433,6.03644 -4.52249,11.71679 -8.44727,16.45117 -4.56317,5.5098 -10.48326,9.87047 -17.20508,12.37305 -1.67338,0.67502 -3.45552,1.06322 -5.09179,1.82227 -1.13806,0.61999 -1.93752,2.10992 -1.26563,3.36718 0.66244,1.32726 2.29785,1.66972 3.63867,1.59375 5.43156,-0.0265 10.81097,-1.1495 15.88672,-2.97656 9.28789,-3.39983 17.48119,-9.673 23.07031,-17.83398 7.21913,-10.34268 10.27779,-23.60515 8.09375,-36.19336 -1.67493,-10.53721 -6.89065,-20.51632 -14.58789,-27.96875 -8.03686,-7.88247 -18.72753,-13.05105 -29.86523,-14.14258 -1.69096,-0.17587 -3.389,-0.26406 -5.08594,-0.26563 z m 48.89844,16.41016 c -0.50244,-0.004 -0.96055,0.11396 -1.35938,0.37305 -4.94324,2.98518 11.76365,20.10872 8.53321,42.125 -1.30379,8.88559 -4.92568,18.4315 -11.5586,26.37305 -5.38053,6.4422 -10.59194,10.69317 -18.3125,15.19531 -31.26198,18.22983 -68.38442,10.15283 -87.5625,7.75586 -4.47318,3.59471 7.88029,9.38642 15.33594,12.22851 26.34867,10.0441 51.85103,7.0026 73.02149,1.74414 23.76952,-5.904 38.36679,-28.15401 43.12695,-47.63672 3.76369,-15.40422 -0.89163,-32.62838 -8.625,-46.20898 -3.35431,-5.89052 -9.08251,-11.92197 -12.59961,-11.94922 z m -205.25391,82.5586 v 0.0195 c -10.44393,0.39874 -20.94965,1.89548 -30.76757,5.59375 -10.98169,3.97946 -21.33733,9.68456 -30.5918,16.80859 -5.637662,4.37783 -10.726462,9.47677 -14.980472,15.21484 -0.89669,1.15389 -1.79337,2.30863 -2.68945,3.46289 13.19799,-5.70066 26.485832,-11.23958 40.244142,-15.44921 10.91939,-3.33695 22.14048,-5.86956 33.51758,-7.04688 1.51955,-0.21543 3.08342,-0.17231 4.58007,-0.5 0.81925,-0.35905 0.84411,-1.37521 0.77539,-2.13867 0.10092,-5.32158 0.20334,-10.64327 0.30274,-15.96484 z m 51.23828,7.32421 c 0.002,0.16252 0.004,0.32929 0.004,0.49219 l 0.002,0.002 c 0.0597,5.59219 0.1184,11.18516 0.17774,16.77735 8.22557,2.55949 16.2062,5.79666 24.06055,9.33203 18.08787,7.73178 36.04328,15.93424 54.89257,21.67383 15.13641,4.61064 30.89196,7.44418 46.7461,7.46875 3.09297,0 6.19792,-2e-4 9.27343,-0.35547 11.70887,-1.68756 23.19571,-5.02098 33.92579,-10.01563 6.75919,-3.20693 13.2379,-7.22896 18.49609,-12.60156 2.31972,-2.4223 4.42268,-5.10484 5.93555,-8.10351 0.30916,-1.18602 -1.16317,-2.20139 -2.20703,-1.67188 -8.39725,2.66003 -16.35672,6.48067 -24.4629,9.86524 -6.40176,2.6691 -12.97,5.01356 -19.73437,6.46679 -6.63889,1.45436 -13.43443,2.06535 -20.23047,1.78906 -13.96259,-0.51666 -27.6243,-4.05832 -40.81055,-8.61718 -14.01649,-4.86955 -27.56978,-10.89908 -41.25976,-16.61524 -11.61423,-4.87823 -23.3528,-9.51095 -35.43164,-13.12304 -3.11331,-0.96038 -6.24535,-1.86377 -9.37696,-2.76368 z m -51.29687,18.16993 c -0.13304,0 -0.2657,-6.9e-4 -0.39844,0.0371 v -0.01 c -15.57944,0.83452 -30.92249,3.94813 -46.07031,7.53906 -2.44347,0.54539 -4.88884,1.13357 -7.19727,2.12305 -0.64868,0.24945 -1.29708,0.50339 -1.94531,0.75586 3.43759,1.18488 6.99776,2.12036 10.64844,2.25 8.91726,0.61153 17.85634,0.1146 26.7832,0.0957 5.9768,-0.068 11.95513,-0.0386 17.92969,0.15039 0.0828,-4.31395 0.16572,-8.62745 0.25,-12.9414 z m 51.51562,7.06054 c 0.001,0.17008 0.003,0.33541 0.004,0.50586 0.0378,5.0778 0.0723,10.15658 0.10742,15.23438 6.17545,2.42078 12.1217,5.43619 18.16992,8.18164 15.15194,7.06582 30.44047,14.06543 46.58789,18.55664 13.4998,3.78784 27.53757,5.75638 41.57032,5.52734 9.25421,-0.10582 18.564,-0.93342 27.52148,-3.35156 5.20762,-1.45058 10.34819,-3.55464 14.58399,-6.97852 1.41044,-1.16371 2.74283,-2.45101 3.81054,-3.9375 0.56826,-1.18148 -0.90194,-2.4798 -2.04101,-1.98242 -14.9715,2.89701 -30.18172,5.2372 -45.47656,4.51758 -12.19824,-0.50986 -24.25482,-3.12431 -35.78907,-7.13477 -10.13057,-3.51722 -19.85862,-8.05384 -29.38476,-12.93359 -12.76351,-6.44296 -26.02666,-11.9036 -39.66407,-16.20508 z"
     inkscape:export-xdpi="96"
     inkscape:export-ydpi="96" />
  <path
     id="path2568"
     style="color:#000000;overflow:visible;fill:#dc6311;fill-opacity:1;stroke-width:5.39705"
     d="m 174.03097,337.50137 c -1.07921,0.0945 -1.60097,1.27521 -1.58914,2.2405 -0.17348,2.53682 -0.10848,5.08347 -0.19956,7.62406 -0.99118,50.68914 -1.98384,101.37828 -2.97415,152.06779 14.36814,0 28.73628,0 43.10442,0 -0.35679,-37.18715 -0.7129,-74.3743 -1.06802,-111.56145 -3.45385,-10.55963 -6.85709,-21.13437 -10.39692,-31.66451 -0.30236,-1.06734 -1.69285,-1.98198 -2.6423,-1.09379 -0.79612,0.84396 -0.62362,2.112 -0.7296,3.17593 -0.42463,21.17632 -0.83452,42.35377 -1.25303,63.53046 -0.40127,20.40643 -0.80254,40.81324 -1.20382,61.22004 -2.65874,0 -5.31753,0 -7.97631,0 -0.3394,-36.4698 -0.68047,-72.9396 -1.01934,-109.40902 -3.39919,-11.47804 -6.77023,-22.9663 -10.19747,-34.43489 -0.36888,-0.75629 -0.84998,-1.76845 -1.85484,-1.69512 z"
     inkscape:export-xdpi="96"
     inkscape:export-ydpi="96" />
  <path
     id="path2570"
     style="color:#000000;font-style:normal;font-variant:normal;font-weight:normal;font-stretch:normal;font-size:medium;line-height:normal;font-family:sans-serif;font-variant-ligatures:normal;font-variant-position:normal;font-variant-caps:normal;font-variant-numeric:normal;font-variant-alternates:normal;font-variant-east-asian:normal;font-feature-settings:normal;font-variation-settings:normal;text-indent:0;text-align:start;text-decoration:none;text-decoration-line:none;text-decoration-style:solid;text-decoration-color:#000000;letter-spacing:normal;word-spacing:normal;text-transform:none;writing-mode:lr-tb;direction:ltr;text-orientation:mixed;dominant-baseline:auto;baseline-shift:baseline;text-anchor:start;white-space:normal;shape-padding:0;shape-margin:0;inline-size:0;clip-rule:nonzero;display:inline;overflow:visible;visibility:visible;isolation:auto;mix-blend-mode:normal;color-interpolation:sRGB;color-interpolation-filters:linearRGB;solid-color:#000000;solid-opacity:1;vector-effect:none;fill:#ffd738;fill-opacity:1;fill-rule:nonzero;stroke:none;stroke-width:16.2946;stroke-linecap:butt;stroke-linejoin:miter;stroke-miterlimit:4;stroke-dasharray:none;stroke-dashoffset:0;stroke-opacity:1;color-rendering:auto;image-rendering:auto;shape-rendering:auto;text-rendering:auto;enable-background:accumulate;stop-color:#000000"
     d="m 124.74562,235.58186 c -11.75422,13.38785 -21.46825,28.65071 -27.999572,45.25153 -9.12548,22.82155 -13.06405,47.72183 -11.25026,72.24492 1.51582,21.103 7.24744,41.8749 16.651242,60.81827 0.45547,0.91881 0.92614,1.8293 1.28988,2.78627 1.76746,3.35018 3.57978,6.6807 5.54993,9.91824 0.72518,1.21436 1.47784,2.41247 2.22883,3.61172 5.0146,-2.72126 10.03018,-5.44101 15.04543,-8.16152 -4.83281,-8.75187 -9.64959,-17.54003 -13.19554,-26.89512 -7.69198,-19.344 -11.20177,-40.29468 -10.10514,-61.0817 0.60926,-11.72939 2.65361,-23.35899 6.04196,-34.61329 3.49859,-11.75282 8.07125,-23.28152 14.79382,-33.58111 2.45318,-3.80825 5.05327,-7.49102 7.96691,-10.95496 2.19133,-2.12712 3.86748,-5.06948 3.69815,-8.20347 -0.29367,-3.16989 -2.29016,-5.90891 -4.63975,-7.93247 -1.74754,-1.47439 -3.79891,-2.5372 -5.90014,-3.41253 -0.0586,0.068 -0.11717,0.13606 -0.17575,0.20409 z"
     inkscape:export-xdpi="96"
     inkscape:export-ydpi="96" />
  <path
     id="path2572"
     style="color:#000000;font-style:normal;font-variant:normal;font-weight:normal;font-stretch:normal;font-size:medium;line-height:normal;font-family:sans-serif;font-variant-ligatures:normal;font-variant-position:normal;font-variant-caps:normal;font-variant-numeric:normal;font-variant-alternates:normal;font-variant-east-asian:normal;font-feature-settings:normal;font-variation-settings:normal;text-indent:0;text-align:start;text-decoration:none;text-decoration-line:none;text-decoration-style:solid;text-decoration-color:#000000;letter-spacing:normal;word-spacing:normal;text-transform:none;writing-mode:lr-tb;direction:ltr;text-orientation:mixed;dominant-baseline:auto;baseline-shift:baseline;text-anchor:start;white-space:normal;shape-padding:0;shape-margin:0;inline-size:0;clip-rule:nonzero;display:inline;overflow:visible;visibility:visible;isolation:auto;mix-blend-mode:normal;color-interpolation:sRGB;color-interpolation-filters:linearRGB;solid-color:#000000;solid-opacity:1;vector-effect:none;fill:#ffd738;fill-opacity:1;fill-rule:nonzero;stroke:none;stroke-width:16.2946;stroke-linecap:butt;stroke-linejoin:miter;stroke-miterlimit:4;stroke-dasharray:none;stroke-dashoffset:0;stroke-opacity:1;color-rendering:auto;image-rendering:auto;shape-rendering:auto;text-rendering:auto;enable-background:accumulate;stop-color:#000000"
     d="m 256.76271,181.81922 c -7.66794,0.72302 -15.45116,1.78393 -22.56295,4.90015 -3.39454,1.45059 -6.56727,3.36076 -9.66262,5.35937 4.14111,2.41399 8.86945,3.71679 13.63729,4.03994 7.83443,0.61115 15.72442,0.54161 23.50685,1.55112 11.4003,1.33115 22.63041,4.02444 33.53836,7.56435 8.20785,2.60825 16.34056,5.59294 24.03469,9.44504 17.70248,8.73373 33.60465,21.14041 46.34098,36.22677 12.57861,14.84787 22.11553,32.17777 27.90418,50.77077 0.96869,3.072 1.8169,6.19767 2.60496,9.32448 0.53175,1.16409 1.68292,1.8463 2.47034,2.81537 6.45649,6.61115 12.27621,13.82324 17.60425,21.36756 0.69978,-0.57865 1.47912,-1.43206 1.19913,-2.41739 -1.52617,-19.12101 -6.32387,-37.99294 -14.32127,-55.43698 -10.14736,-22.24025 -25.29351,-42.20674 -44.10433,-57.8332 -17.86016,-14.8732 -38.95363,-25.83156 -61.37991,-31.92491 -13.28637,-3.62911 -27.03417,-5.59106 -40.80995,-5.75244 z"
     inkscape:export-xdpi="96"
     inkscape:export-ydpi="96" />
</svg>
